<svg width="328" height="282" viewBox="0 0 328 282" fill="none" xmlns="http://www.w3.org/2000/svg">
<g opacity="0.27">
<path d="M297.888 95.7108C299.128 62.1552 287.073 28.1946 260.501 12.0325C247.385 4.05271 232.049 -0.621743 216.705 0.0668673C200.243 0.804085 184.746 7.50386 169.224 13.0289C153.701 18.554 136.891 22.9692 120.891 19.0482C109.314 16.2128 99.1311 9.20513 87.6759 6.01322C42.5436 -6.55189 3.24417 44.6564 25.3283 85.3654C30.7481 95.3462 39.1005 103.35 46.1243 112.286C53.1482 121.222 59.0378 132.013 58.09 143.33C57.2798 152.703 51.9654 161.048 49.7537 170.186C45.5248 187.693 53.9178 206.95 68.4272 217.619C82.9366 228.288 102.509 230.776 120.008 226.385C137.507 221.994 152.899 211.251 165.027 197.949C171.508 190.82 177.86 182.492 187.184 180.07C196.136 177.753 205.363 181.528 214.445 183.261C222.841 184.815 231.466 184.638 239.791 182.744C248.117 180.85 255.969 177.277 262.866 172.244C284.78 156.033 296.77 126.034 297.888 95.7108Z" fill="#0055D2"/>
<path opacity="0.7" d="M297.888 95.7108C299.128 62.1552 287.073 28.1946 260.501 12.0325C247.385 4.05271 232.049 -0.621743 216.705 0.0668673C200.243 0.804085 184.746 7.50386 169.224 13.0289C153.701 18.554 136.891 22.9692 120.891 19.0482C109.314 16.2128 99.1311 9.20513 87.6759 6.01322C42.5436 -6.55189 3.24417 44.6564 25.3283 85.3654C30.7481 95.3462 39.1005 103.35 46.1243 112.286C53.1482 121.222 59.0378 132.013 58.09 143.33C57.2798 152.703 51.9654 161.048 49.7537 170.186C45.5248 187.693 53.9178 206.95 68.4272 217.619C82.9366 228.288 102.509 230.776 120.008 226.385C137.507 221.994 152.899 211.251 165.027 197.949C171.508 190.82 177.86 182.492 187.184 180.07C196.136 177.753 205.363 181.528 214.445 183.261C222.841 184.815 231.466 184.638 239.791 182.744C248.117 180.85 255.969 177.277 262.866 172.244C284.78 156.033 296.77 126.034 297.888 95.7108Z" fill="white"/>
</g>
<path d="M153.539 281.578C214.035 281.578 263.077 271.771 263.077 259.673C263.077 247.574 214.035 237.767 153.539 237.767C93.0434 237.767 44.0017 247.574 44.0017 259.673C44.0017 271.771 93.0434 281.578 153.539 281.578Z" fill="white" fill-opacity="0.18"/>
<path d="M322.22 35.7556H243.24C240.542 35.7556 238.355 37.9427 238.355 40.6407V127.705C238.355 130.403 240.542 132.59 243.24 132.59H322.22C324.918 132.59 327.105 130.403 327.105 127.705V40.6407C327.105 37.9427 324.918 35.7556 322.22 35.7556Z" fill="white" stroke="#263238" stroke-linecap="round" stroke-linejoin="round"/>
<path d="M243.24 35.7554H322.212C323.501 35.7554 324.737 36.2675 325.649 37.1791C326.56 38.0907 327.072 39.327 327.072 40.6162V45.6876H238.355V40.6405C238.352 39.9981 238.476 39.3614 238.72 38.7673C238.965 38.1731 239.324 37.6333 239.779 37.1791C240.233 36.7248 240.773 36.3651 241.367 36.1207C241.961 35.8764 242.598 35.7522 243.24 35.7554Z" fill="#263238" stroke="#263238" stroke-linecap="round" stroke-linejoin="round"/>
<path d="M243.192 87.4583H278.902" stroke="#263238" stroke-linecap="round" stroke-linejoin="round"/>
<path d="M243.192 92.0676H278.902" stroke="#263238" stroke-linecap="round" stroke-linejoin="round"/>
<path d="M243.192 96.6772H278.902" stroke="#263238" stroke-linecap="round" stroke-linejoin="round"/>
<path d="M243.192 101.287H278.902" stroke="#263238" stroke-linecap="round" stroke-linejoin="round"/>
<path d="M243.192 105.896H278.902" stroke="#263238" stroke-linecap="round" stroke-linejoin="round"/>
<path d="M243.192 110.514H278.902" stroke="#263238" stroke-linecap="round" stroke-linejoin="round"/>
<path d="M243.192 115.124H278.902" stroke="#263238" stroke-linecap="round" stroke-linejoin="round"/>
<path d="M243.192 119.734H278.902" stroke="#263238" stroke-linecap="round" stroke-linejoin="round"/>
<path d="M243.192 124.343H278.902" stroke="#263238" stroke-linecap="round" stroke-linejoin="round"/>
<path d="M285.181 87.4583H320.891" stroke="#263238" stroke-linecap="round" stroke-linejoin="round"/>
<path d="M285.181 92.0676H320.891" stroke="#263238" stroke-linecap="round" stroke-linejoin="round"/>
<path d="M285.181 96.6772H320.891" stroke="#263238" stroke-linecap="round" stroke-linejoin="round"/>
<path d="M285.181 101.287H320.891" stroke="#263238" stroke-linecap="round" stroke-linejoin="round"/>
<path d="M285.181 105.896H320.891" stroke="#263238" stroke-linecap="round" stroke-linejoin="round"/>
<path d="M285.181 110.514H320.891" stroke="#263238" stroke-linecap="round" stroke-linejoin="round"/>
<path d="M285.181 115.124H320.891" stroke="#263238" stroke-linecap="round" stroke-linejoin="round"/>
<path d="M285.181 119.734H320.891" stroke="#263238" stroke-linecap="round" stroke-linejoin="round"/>
<path d="M285.181 124.343H320.891" stroke="#263238" stroke-linecap="round" stroke-linejoin="round"/>
<path d="M267.074 58.2692C267.25 57.7218 267.343 57.151 267.35 56.576C267.35 54.4778 265.219 54.3562 263.129 54.3562H262.602V53.8621H271.724V54.3562C269.351 54.3562 268.484 55.8712 267.747 58.1152L262.886 72.6247C262.521 73.7021 262.213 74.5042 261.071 74.5042H260.974L256.696 60.6428L252.719 72.6571C252.346 73.7345 252.038 74.5366 250.896 74.5366H250.807L244.585 54.3562H242.398V53.8621H250.402V54.3562H248.125L252.743 70.251H252.929L256.413 59.695L254.793 54.3967H252.605V53.8621H260.618V54.3562H258.341L262.959 70.251H263.137L267.074 58.2692Z" fill="#0055D2"/>
<path d="M321.142 49.2686H284.395V82.4839H321.142V49.2686Z" fill="#0055D2" stroke="#263238" stroke-width="2" stroke-linecap="round" stroke-linejoin="round"/>
<path d="M321.142 63.1541C319.91 63.2243 318.685 63.395 317.481 63.6644C311.899 64.8796 310.441 72.8918 304.13 72.8918C298.54 72.8918 298.062 65.3657 290.05 64.3936C288.1 64.0865 286.104 64.4401 284.379 65.3981V82.4837H321.142V63.1541Z" fill="#263238" stroke="#263238" stroke-linecap="round" stroke-linejoin="round"/>
<path d="M296.603 56.8675C296.605 57.6853 296.364 58.4853 295.91 59.1659C295.457 59.8466 294.812 60.3774 294.057 60.6912C293.301 61.0049 292.47 61.0874 291.668 60.9282C290.865 60.7691 290.129 60.3754 289.55 59.7971C288.972 59.2188 288.578 58.4818 288.419 57.6796C288.26 56.8774 288.342 56.046 288.656 55.2907C288.97 54.5354 289.501 53.8902 290.181 53.4368C290.862 52.9835 291.662 52.7423 292.48 52.7439C293.573 52.7439 294.622 53.1784 295.396 53.9517C296.169 54.725 296.603 55.7738 296.603 56.8675Z" fill="white" stroke="#263238" stroke-linecap="round" stroke-linejoin="round"/>
<path d="M322.819 38.6643H241.021V41.8157H322.819V38.6643Z" fill="white" stroke="#263238" stroke-linecap="round" stroke-linejoin="round"/>
<path d="M317.715 151.912H282.305C280.912 151.912 279.577 152.465 278.593 153.449C277.608 154.434 277.055 155.769 277.055 157.161V176.102C277.055 177.494 277.608 178.83 278.593 179.814C279.577 180.799 280.912 181.352 282.305 181.352H283.39C282.288 183.782 280.15 187.509 276.771 189.72C276.771 189.72 283.957 189.218 291.443 181.352H317.699C319.092 181.352 320.427 180.799 321.411 179.814C322.396 178.83 322.949 177.494 322.949 176.102V157.161C322.949 155.772 322.398 154.439 321.417 153.455C320.436 152.471 319.105 151.916 317.715 151.912Z" fill="#263238" stroke="#263238" stroke-linecap="round" stroke-linejoin="round"/>
<path d="M293.922 165.96C293.924 165.424 293.766 164.9 293.469 164.454C293.173 164.007 292.75 163.659 292.255 163.454C291.761 163.248 291.216 163.194 290.69 163.298C290.165 163.402 289.682 163.66 289.303 164.039C288.924 164.418 288.666 164.9 288.562 165.426C288.458 165.952 288.512 166.496 288.718 166.991C288.924 167.486 289.272 167.908 289.718 168.205C290.164 168.502 290.688 168.659 291.224 168.658C291.939 168.656 292.624 168.371 293.129 167.865C293.635 167.36 293.92 166.675 293.922 165.96Z" fill="#0055D2" stroke="#263238" stroke-linecap="round" stroke-linejoin="round"/>
<path d="M303.101 165.96C303.101 165.426 302.942 164.905 302.646 164.461C302.349 164.018 301.928 163.672 301.435 163.468C300.942 163.263 300.4 163.21 299.877 163.314C299.353 163.418 298.873 163.675 298.495 164.052C298.118 164.43 297.861 164.91 297.757 165.434C297.653 165.957 297.706 166.499 297.91 166.992C298.115 167.485 298.46 167.907 298.904 168.203C299.348 168.499 299.869 168.658 300.403 168.658C301.118 168.656 301.803 168.371 302.308 167.865C302.813 167.36 303.098 166.675 303.101 165.96Z" fill="#0055D2" stroke="#263238" stroke-linecap="round" stroke-linejoin="round"/>
<path d="M312.287 165.96C312.289 165.425 312.132 164.901 311.835 164.455C311.539 164.009 311.117 163.66 310.623 163.454C310.128 163.248 309.584 163.194 309.059 163.297C308.533 163.401 308.05 163.658 307.671 164.036C307.292 164.414 307.033 164.896 306.928 165.421C306.823 165.946 306.876 166.491 307.081 166.986C307.285 167.48 307.632 167.903 308.077 168.201C308.523 168.499 309.046 168.658 309.582 168.658C310.297 168.656 310.983 168.371 311.49 167.866C311.996 167.361 312.283 166.676 312.287 165.96Z" fill="#0055D2" stroke="#263238" stroke-linecap="round" stroke-linejoin="round"/>
<path d="M34.7257 22.2566H93.0551C94.4431 22.2566 95.7742 22.808 96.7557 23.7894C97.7371 24.7709 98.2885 26.102 98.2885 27.49V67.9236H29.5166V27.49C29.5166 26.1062 30.0646 24.7788 31.0408 23.798C32.017 22.8172 33.342 22.263 34.7257 22.2566Z" fill="#0055D2" stroke="#263238" stroke-linecap="round" stroke-linejoin="round"/>
<path d="M98.2561 61.4019H29.5166V67.8991H98.2561V61.4019Z" fill="#263238" stroke="#263238" stroke-linecap="round" stroke-linejoin="round"/>
<path d="M95.1127 63.6216H32.668V65.6793H95.1127V63.6216Z" fill="white" stroke="#263238" stroke-linecap="round" stroke-linejoin="round"/>
<path d="M63.8902 52.4741C69.134 52.4741 73.3849 48.2231 73.3849 42.9793C73.3849 37.7356 69.134 33.4846 63.8902 33.4846C58.6464 33.4846 54.3955 37.7356 54.3955 42.9793C54.3955 48.2231 58.6464 52.4741 63.8902 52.4741Z" fill="#263238" stroke="#263238" stroke-linecap="round" stroke-linejoin="round"/>
<path d="M59.6047 37.0737L69.8529 42.9877L59.6047 48.9016V37.0737Z" fill="white" stroke="#263238" stroke-linecap="round" stroke-linejoin="round"/>
<path d="M68.5243 84.5305H3.28457C2.02283 84.5305 1 85.5534 1 86.8151V111.678C1 112.94 2.02283 113.963 3.28457 113.963H68.5243C69.786 113.963 70.8089 112.94 70.8089 111.678V86.8151C70.8089 85.5534 69.786 84.5305 68.5243 84.5305Z" fill="#263238" stroke="#263238" stroke-linecap="round" stroke-linejoin="round"/>
<path d="M9.3117 88.5408L9.65196 89.1079C8.11271 89.9666 6.67878 91.4734 6.67878 93.2395C6.65908 93.5429 6.70013 93.8472 6.79952 94.1345C6.89892 94.4218 7.05466 94.6864 7.25762 94.9127C7.46058 95.1391 7.70668 95.3226 7.98149 95.4527C8.2563 95.5827 8.5543 95.6565 8.85803 95.6699C9.08486 95.6699 9.23879 95.5565 9.23879 95.3297C9.23879 95.1028 9.12537 95.0299 8.89854 94.9894C8.59264 94.9065 8.32614 94.7176 8.14659 94.4565C7.96704 94.1953 7.88612 93.8789 7.91828 93.5636C7.92417 93.312 7.98117 93.0643 8.08582 92.8355C8.19046 92.6067 8.34055 92.4015 8.52697 92.2325C8.71339 92.0635 8.93224 91.9342 9.17021 91.8525C9.40817 91.7707 9.66028 91.7382 9.9112 91.757C10.1842 91.7579 10.4541 91.8136 10.7052 91.9207C10.9563 92.0278 11.1833 92.1842 11.3729 92.3806C11.5625 92.5769 11.7108 92.8094 11.809 93.064C11.9072 93.3187 11.9533 93.5905 11.9446 93.8633C11.9407 94.2062 11.8676 94.5447 11.7299 94.8587C11.5922 95.1728 11.3926 95.4558 11.1431 95.691C10.8936 95.9261 10.5992 96.1086 10.2776 96.2275C9.95596 96.3463 9.61369 96.3992 9.2712 96.3828C8.8454 96.4104 8.41856 96.3482 8.01834 96.2003C7.61812 96.0523 7.25344 95.822 6.94793 95.5241C6.64242 95.2262 6.4029 94.8675 6.24489 94.4711C6.08688 94.0748 6.0139 93.6497 6.03068 93.2233C6.00637 91.1737 7.58612 89.521 9.3117 88.5408ZM16.2707 88.5408L16.611 89.1079C15.0636 89.9666 13.6378 91.4734 13.6378 93.2395C13.617 93.5431 13.6572 93.8479 13.7562 94.1357C13.8552 94.4234 14.0109 94.6885 14.214 94.9151C14.4172 95.1416 14.6637 95.3252 14.9391 95.4548C15.2144 95.5845 15.513 95.6576 15.817 95.6699C16.0439 95.6699 16.1978 95.5565 16.1978 95.3297C16.1978 95.1028 16.0844 95.0299 15.8575 94.9894C15.5516 94.9065 15.2851 94.7176 15.1056 94.4565C14.926 94.1953 14.8451 93.8789 14.8773 93.5636C14.882 93.3117 14.9383 93.0634 15.0425 92.834C15.1468 92.6046 15.2968 92.399 15.4835 92.2298C15.6702 92.0606 15.8895 91.9313 16.128 91.85C16.3665 91.7687 16.619 91.7371 16.8702 91.757C17.1432 91.7579 17.4132 91.8136 17.6642 91.9207C17.9153 92.0278 18.1423 92.1842 18.3319 92.3806C18.5215 92.5769 18.6698 92.8094 18.768 93.064C18.8662 93.3187 18.9123 93.5905 18.9036 93.8633C18.8986 94.2059 18.8248 94.5439 18.6867 94.8574C18.5486 95.1709 18.349 95.4534 18.0997 95.6884C17.8504 95.9233 17.5565 96.1058 17.2353 96.2251C16.9142 96.3444 16.5724 96.398 16.2302 96.3828C15.8047 96.4091 15.3784 96.346 14.9788 96.1977C14.5791 96.0493 14.215 95.8189 13.9097 95.5213C13.6045 95.2236 13.3649 94.8654 13.2065 94.4697C13.048 94.0739 12.9742 93.6493 12.9897 93.2233C12.9573 91.1737 14.537 89.521 16.2707 88.5408Z" fill="#0055D2"/>
<path d="M22.9302 94.5361H62.6589" stroke="white" stroke-linecap="round" stroke-linejoin="round"/>
<path d="M22.9302 97.9465H62.6589" stroke="white" stroke-linecap="round" stroke-linejoin="round"/>
<path d="M22.9302 101.357H62.6589" stroke="white" stroke-linecap="round" stroke-linejoin="round"/>
<path d="M22.9302 104.776H62.6589" stroke="white" stroke-linecap="round" stroke-linejoin="round"/>
<path d="M55.6295 159.597C63.8296 158.259 69.3922 150.526 68.0537 142.326C66.7153 134.126 58.9828 128.563 50.7827 129.902C42.5826 131.24 37.0201 138.973 38.3585 147.173C39.6969 155.373 47.4294 160.935 55.6295 159.597Z" fill="#263238" stroke="#263238" stroke-linecap="round" stroke-linejoin="round"/>
<path d="M62.7484 153.143C67.3749 147.875 66.8548 139.854 61.5868 135.227C56.3188 130.601 48.2977 131.121 43.6713 136.389C39.0449 141.657 39.565 149.678 44.833 154.305C50.101 158.931 58.122 158.411 62.7484 153.143Z" fill="white" stroke="#263238" stroke-linecap="round" stroke-linejoin="round"/>
<path d="M53.2129 135.569V144.748H59.4185" stroke="#263238" stroke-width="2" stroke-linecap="round" stroke-linejoin="round"/>
<path d="M183.198 102.273C183.198 102.273 191.826 120.687 191.826 121.659C191.826 122.632 184.17 126.796 182.712 127.671C181.581 128.315 180.415 128.896 179.22 129.412L180.095 137.943C180.095 137.943 193.276 134.937 198.801 131.932C204.326 128.926 204.132 125.532 202.852 120.493C201.572 115.454 193.057 95.9783 193.057 95.9783L183.198 102.273Z" fill="white"/>
<mask id="mask0_481_32773" style="mask-type:luminance" maskUnits="userSpaceOnUse" x="179" y="95" width="25" height="43">
<path d="M183.198 102.273C183.198 102.273 191.826 120.687 191.826 121.659C191.826 122.632 184.17 126.796 182.712 127.671C181.581 128.315 180.415 128.896 179.22 129.412L180.095 137.943C180.095 137.943 193.276 134.937 198.801 131.932C204.326 128.926 204.132 125.532 202.852 120.493C201.572 115.454 193.057 95.9783 193.057 95.9783L183.198 102.273Z" fill="white"/>
</mask>
<g mask="url(#mask0_481_32773)">
<g style="mix-blend-mode:multiply" opacity="0.5">
<path d="M198.777 131.932C204.302 128.926 204.108 125.532 202.828 120.493C201.548 115.454 193.033 95.9783 193.033 95.9783L191.656 96.8532L191.219 97.6633C191.219 97.6633 199.166 117.171 199.644 123.668C199.968 128.035 191.178 133.479 185.369 136.59C189.679 135.448 195.545 133.69 198.777 131.932Z" fill="#0055D2"/>
</g>
</g>
<path d="M183.198 102.273C183.198 102.273 191.826 120.687 191.826 121.659C191.826 122.632 184.17 126.796 182.712 127.671C181.581 128.315 180.415 128.896 179.22 129.412L180.095 137.943C180.095 137.943 193.276 134.937 198.801 131.932C204.326 128.926 204.132 125.532 202.852 120.493C201.572 115.454 193.057 95.9783 193.057 95.9783L183.198 102.273Z" stroke="#263238" stroke-linecap="round" stroke-linejoin="round"/>
<path d="M120.948 98.2065C120.948 98.2065 114.653 121.271 114.467 125.346C114.28 129.421 126.967 137.457 127.429 137.943C127.89 138.429 126.708 123.928 126.708 123.928L131.009 102.865L120.948 98.2065Z" fill="white"/>
<mask id="mask1_481_32773" style="mask-type:luminance" maskUnits="userSpaceOnUse" x="114" y="98" width="18" height="40">
<path d="M120.948 98.2065C120.948 98.2065 114.653 121.271 114.467 125.346C114.28 129.421 126.967 137.457 127.429 137.943C127.89 138.429 126.708 123.928 126.708 123.928L131.009 102.865L120.948 98.2065Z" fill="white"/>
</mask>
<g mask="url(#mask1_481_32773)">
<g style="mix-blend-mode:multiply" opacity="0.5">
<path d="M123.832 100.094L123.694 99.4703L120.948 98.2065C120.948 98.2065 114.653 121.271 114.467 125.346C114.28 129.421 126.967 137.457 127.429 137.943C127.615 138.138 127.542 135.967 127.388 133.285C123.613 130.085 118.193 125.581 117.561 123.685" fill="#0055D2"/>
</g>
</g>
<path d="M120.948 98.2065C120.948 98.2065 114.653 121.271 114.467 125.346C114.28 129.421 126.967 137.457 127.429 137.943C127.89 138.429 126.708 123.928 126.708 123.928L131.009 102.865L120.948 98.2065Z" stroke="#263238" stroke-linecap="round" stroke-linejoin="round"/>
<path d="M150.509 75.0359C150.509 75.0359 148.079 76.7858 143.34 76.9802C138.6 77.1747 138.374 73.7397 132.484 73.7397C125.347 73.7397 116.395 96.318 116.395 96.318C116.395 96.318 120.85 100.685 125.217 102.524C127.633 103.582 130.172 104.33 132.776 104.751L133.456 119.585H181.529L182.104 104.751L197.132 95.0056C197.132 95.0056 189.76 81.8248 186.179 76.883C182.599 71.9412 176.579 73.7802 174.74 75.0359C172.901 76.2916 167.449 76.5914 165.44 76.2997C162.819 75.7197 160.229 75.0086 157.679 74.1691C157.679 74.1691 154.584 71.5929 150.509 75.0359Z" fill="#0055D2" stroke="#263238" stroke-linecap="round" stroke-linejoin="round"/>
<path d="M133.262 80.2695L133.067 104.889" stroke="#263238" stroke-width="0.5" stroke-linecap="round" stroke-linejoin="round"/>
<path d="M135.004 82.5056C135.004 82.5056 135.684 94.5198 138.244 101.212" stroke="#263238" stroke-width="0.5" stroke-linecap="round" stroke-linejoin="round"/>
<path d="M138.689 102.176C139.242 103.809 139.922 105.396 140.723 106.923" stroke="#263238" stroke-width="0.5" stroke-linecap="round" stroke-linejoin="round"/>
<path d="M136.551 81.1453C137.471 85.5138 138.769 89.794 140.432 93.9372" stroke="#263238" stroke-width="0.5" stroke-linecap="round" stroke-linejoin="round"/>
<path d="M178.337 83.2751C178.337 83.2751 176.012 92.778 173.971 97.0474" stroke="#263238" stroke-width="0.5" stroke-linecap="round" stroke-linejoin="round"/>
<path d="M182.104 104.792L182.007 85.6003" stroke="#263238" stroke-width="0.5" stroke-linecap="round" stroke-linejoin="round"/>
<path d="M181.043 85.9897C181.043 85.9897 179.293 98.1417 175.032 104.501" stroke="#263238" stroke-width="0.5" stroke-linecap="round" stroke-linejoin="round"/>
<path d="M178.912 102.078C178.912 102.078 176.968 105.764 175.615 107.701" stroke="#263238" stroke-width="0.5" stroke-linecap="round" stroke-linejoin="round"/>
<path d="M147.795 76.4946C147.795 76.4946 149.156 84.8309 151.093 89.0921C153.029 93.3534 156.423 94.2284 159.332 92.9727C162.24 91.717 164.371 85.5033 164.192 77.5802" stroke="#263238" stroke-width="0.5" stroke-linecap="round" stroke-linejoin="round"/>
<path d="M140.917 59.0443C140.917 59.0443 139.07 55.8524 137.62 57.4969C136.17 59.1415 138.787 62.9248 140.237 64.1805C141.687 65.4362 142.756 64.6666 142.667 63.3137C142.578 61.9607 140.917 59.0443 140.917 59.0443Z" fill="#0055D2" stroke="#263238" stroke-linecap="round" stroke-linejoin="round"/>
<path opacity="0.5" d="M140.917 59.0443C140.917 59.0443 139.07 55.8524 137.62 57.4969C136.17 59.1415 138.787 62.9248 140.237 64.1805C141.687 65.4362 142.756 64.6666 142.667 63.3137C142.578 61.9607 140.917 59.0443 140.917 59.0443Z" fill="white"/>
<path d="M140.917 59.0443C140.917 59.0443 139.07 55.8524 137.62 57.4969C136.17 59.1415 138.787 62.9248 140.237 64.1805C141.687 65.4362 142.756 64.6666 142.667 63.3137C142.578 61.9607 140.917 59.0443 140.917 59.0443Z" stroke="#263238" stroke-linecap="round" stroke-linejoin="round"/>
<path d="M170.236 59.0443C170.236 59.0443 172.075 55.8524 173.533 57.4969C174.991 59.1415 172.367 62.9248 170.916 64.1805C169.466 65.4362 168.389 64.6666 168.486 63.3137C168.583 61.9607 170.236 59.0443 170.236 59.0443Z" fill="#0055D2" stroke="#263238" stroke-linecap="round" stroke-linejoin="round"/>
<path opacity="0.5" d="M170.236 59.0443C170.236 59.0443 172.075 55.8524 173.533 57.4969C174.991 59.1415 172.367 62.9248 170.916 64.1805C169.466 65.4362 168.389 64.6666 168.486 63.3137C168.583 61.9607 170.236 59.0443 170.236 59.0443Z" fill="white"/>
<path d="M170.236 59.0443C170.236 59.0443 172.075 55.8524 173.533 57.4969C174.991 59.1415 172.367 62.9248 170.916 64.1805C169.466 65.4362 168.389 64.6666 168.486 63.3137C168.583 61.9607 170.236 59.0443 170.236 59.0443Z" stroke="#263238" stroke-linecap="round" stroke-linejoin="round"/>
<path d="M149.635 74.364C150.55 78.5006 151.716 82.5777 153.126 86.5727C154.876 90.9312 158.165 90.9312 159.526 88.12C160.887 85.3089 161.754 74.8339 161.754 74.8339C161.754 74.8339 152.64 76.1058 149.635 74.364Z" fill="white" stroke="#263238" stroke-linecap="round" stroke-linejoin="round"/>
<path d="M141.112 60.1139C141.112 60.1139 143.631 69.0253 148.403 74.2668C153.175 79.5084 154.884 80.7479 157.42 80.3671C159.956 79.9863 162.653 76.6891 166.428 69.8354C170.204 62.9817 170.479 57.724 170.795 57.2379C171.111 56.7518 169.985 47.0627 164.589 42.8905C159.194 38.7183 153.15 36.8874 147.917 41.4404C142.684 45.9933 139.362 53.4222 141.112 60.1139Z" fill="white"/>
<mask id="mask2_481_32773" style="mask-type:luminance" maskUnits="userSpaceOnUse" x="140" y="38" width="31" height="43">
<path d="M141.112 60.1139C141.112 60.1139 143.631 69.0253 148.403 74.2668C153.175 79.5084 154.884 80.7479 157.42 80.3671C159.956 79.9863 162.653 76.6891 166.428 69.8354C170.204 62.9817 170.479 57.724 170.795 57.2379C171.111 56.7518 169.985 47.0627 164.589 42.8905C159.194 38.7183 153.15 36.8874 147.917 41.4404C142.684 45.9933 139.362 53.4222 141.112 60.1139Z" fill="white"/>
</mask>
<g mask="url(#mask2_481_32773)">
<g style="mix-blend-mode:multiply" opacity="0.5">
<path d="M164.565 42.8585C159.137 38.6945 153.126 36.8555 147.893 41.4084C142.659 45.9613 139.362 53.4226 141.112 60.1143C141.112 60.1143 141.59 61.8318 142.538 64.165C142.535 63.8663 142.576 63.5688 142.659 63.2819C143.818 59.612 147.237 52.5072 158.741 55.7639C167.879 58.3401 166.761 66.3766 165.91 70.6622L166.404 69.7711C170.188 62.8931 170.455 57.6596 170.771 57.1735C171.087 56.6875 169.993 47.0307 164.565 42.8585Z" fill="#0055D2"/>
</g>
</g>
<path d="M141.112 60.1139C141.112 60.1139 143.631 69.0253 148.403 74.2668C153.175 79.5084 154.884 80.7479 157.42 80.3671C159.956 79.9863 162.653 76.6891 166.428 69.8354C170.204 62.9817 170.479 57.724 170.795 57.2379C171.111 56.7518 169.985 47.0627 164.589 42.8905C159.194 38.7183 153.15 36.8874 147.917 41.4404C142.684 45.9933 139.362 53.4222 141.112 60.1139Z" stroke="#263238" stroke-linecap="round" stroke-linejoin="round"/>
<path d="M157.395 64.7632C157.095 66.6554 156.933 68.5669 156.909 70.4827C157.007 72.4189 157.59 73.0022 156.715 73.1966C155.84 73.3911 154.876 72.03 154.876 72.03" stroke="#263238" stroke-linecap="round" stroke-linejoin="round"/>
<path d="M147.698 66.3193C148.26 66.725 148.931 66.9513 149.624 66.9686C150.316 66.986 150.998 66.7935 151.579 66.4165" stroke="#263238" stroke-linecap="round" stroke-linejoin="round"/>
<path d="M160.012 66.3193C160.573 66.7243 161.242 66.9502 161.934 66.9676C162.625 66.9849 163.305 66.7928 163.885 66.4165" stroke="#263238" stroke-linecap="round" stroke-linejoin="round"/>
<path d="M153.888 63.0545C153.888 63.0545 152.041 58.4934 145.94 60.6241" stroke="#263238" stroke-linecap="round" stroke-linejoin="round"/>
<path d="M158.967 62.4955C158.967 62.4955 160.515 58.0317 166.04 60.6484" stroke="#263238" stroke-linecap="round" stroke-linejoin="round"/>
<path d="M155.062 66.6513C155.062 69.1465 152.203 71.1637 148.671 71.1637C145.138 71.1637 142.271 69.1465 142.271 66.6513C142.271 64.1561 144.944 63.1191 148.476 63.1191C152.008 63.1191 155.062 64.1642 155.062 66.6513Z" stroke="#263238" stroke-linecap="round" stroke-linejoin="round"/>
<path d="M169.799 66.6513C169.799 69.1465 166.931 71.1637 163.399 71.1637C159.866 71.1637 157.007 69.1465 157.007 66.6513C157.007 64.1561 159.672 63.1191 163.204 63.1191C166.736 63.1191 169.799 64.1642 169.799 66.6513Z" stroke="#263238" stroke-linecap="round" stroke-linejoin="round"/>
<path d="M88.1133 144.368L87.7163 242.58C87.7163 242.889 87.8392 243.186 88.058 243.405C88.2768 243.623 88.5735 243.746 88.8829 243.746C89.1846 243.746 89.4745 243.629 89.6908 243.419C89.9072 243.208 90.0329 242.922 90.0414 242.62L92.8444 144.505L88.1133 144.368Z" fill="white" stroke="#263238" stroke-linecap="round" stroke-linejoin="round"/>
<path d="M81.5026 167.326L81.1219 268.86C81.1208 269.013 81.1502 269.165 81.2085 269.307C81.2667 269.449 81.3526 269.578 81.4611 269.687C81.5697 269.796 81.6987 269.881 81.8407 269.94C81.9828 269.998 82.1349 270.027 82.2884 270.026C82.5896 270.027 82.8792 269.91 83.0966 269.702C83.3141 269.494 83.4425 269.209 83.455 268.908L86.25 167.456L81.5026 167.326Z" fill="white" stroke="#263238" stroke-linecap="round" stroke-linejoin="round"/>
<path d="M223.891 144.368L224.288 242.58C224.289 242.733 224.26 242.884 224.202 243.026C224.144 243.167 224.059 243.296 223.952 243.404C223.844 243.513 223.716 243.599 223.575 243.657C223.434 243.716 223.282 243.746 223.13 243.746C222.827 243.746 222.536 243.629 222.319 243.419C222.101 243.209 221.973 242.923 221.963 242.62L219.168 144.505L223.891 144.368Z" fill="white" stroke="#263238" stroke-linecap="round" stroke-linejoin="round"/>
<path d="M230.51 167.326L230.907 268.86C230.908 269.013 230.878 269.165 230.82 269.307C230.762 269.449 230.676 269.578 230.567 269.687C230.459 269.796 230.33 269.881 230.188 269.94C230.046 269.998 229.894 270.027 229.74 270.026C229.44 270.026 229.151 269.91 228.935 269.701C228.719 269.493 228.592 269.208 228.582 268.908L225.779 167.456L230.51 167.326Z" fill="white" stroke="#263238" stroke-linecap="round" stroke-linejoin="round"/>
<path d="M127.534 171.547L127.299 261.666C127.274 261.891 127.336 262.117 127.474 262.296C127.611 262.476 127.813 262.596 128.037 262.63C128.255 262.599 128.454 262.487 128.592 262.316C128.731 262.144 128.798 261.926 128.782 261.706L130.54 171.652L127.534 171.547Z" fill="white" stroke="#263238" stroke-linecap="round" stroke-linejoin="round"/>
<path d="M184.576 168.646L184.794 247.294C184.813 247.484 184.758 247.674 184.64 247.825C184.523 247.976 184.351 248.076 184.162 248.104C183.974 248.076 183.803 247.976 183.687 247.825C183.571 247.674 183.518 247.483 183.539 247.294L182.04 168.711L184.576 168.646Z" fill="white" stroke="#263238" stroke-linecap="round" stroke-linejoin="round"/>
<path d="M126.651 168.646L126.87 247.294C126.889 247.484 126.833 247.674 126.716 247.825C126.598 247.976 126.427 248.076 126.238 248.104C126.049 248.076 125.879 247.976 125.763 247.825C125.647 247.674 125.593 247.483 125.614 247.294L124.115 168.711L126.651 168.646Z" fill="white" stroke="#263238" stroke-linecap="round" stroke-linejoin="round"/>
<path d="M182.947 171.547L183.198 261.666C183.224 261.891 183.161 262.117 183.024 262.296C182.887 262.476 182.685 262.596 182.461 262.63C182.243 262.598 182.046 262.485 181.908 262.314C181.77 262.143 181.701 261.926 181.716 261.706L179.958 171.652L182.947 171.547Z" fill="white" stroke="#263238" stroke-linecap="round" stroke-linejoin="round"/>
<path d="M154.843 177.858C174.754 177.858 190.894 174.169 190.894 169.619C190.894 165.069 174.754 161.38 154.843 161.38C134.933 161.38 118.793 165.069 118.793 169.619C118.793 174.169 134.933 177.858 154.843 177.858Z" fill="white" stroke="#263238" stroke-linecap="round" stroke-linejoin="round"/>
<path d="M137.288 239.558C137.288 239.558 135.401 242.263 136.753 243.608C138.106 244.953 139.451 244.418 139.313 245.771C139.176 247.124 137.021 251.709 135.133 256.57C133.246 261.431 137.159 266.292 140.804 264.947C144.45 263.602 144.045 250.089 144.579 247.659C145.114 245.228 145.527 244.823 145.389 242.531C145.252 240.238 145.122 237.808 143.364 237.532C141.606 237.257 138.098 238.618 137.288 239.558Z" fill="white" stroke="#263238" stroke-linecap="round" stroke-linejoin="round"/>
<path d="M143.08 261.221C140.65 260.297 136.923 260.483 134.825 260.694C135.53 263.748 138.228 265.895 140.804 264.947C141.881 264.55 142.586 263.108 143.08 261.221Z" fill="#0055D2" stroke="#263238" stroke-linecap="round" stroke-linejoin="round"/>
<path d="M133.108 233.619C133.108 233.619 137.021 240.238 138.098 241.988C139.176 243.738 142.829 243.203 143.235 240.773C143.64 238.342 141.744 231.594 141.744 231.594L133.643 233.619H133.108Z" fill="white" stroke="#263238" stroke-linecap="round" stroke-linejoin="round"/>
<path d="M123.791 223.087C123.791 223.087 122.706 224.845 123.249 226.06C123.791 227.276 125.274 230.783 126.222 232.541C127.17 234.299 131.488 235.377 136.478 234.567C141.468 233.757 144.312 231.456 144.45 229.43C144.587 227.405 143.64 224.707 142.959 221.467C142.279 218.226 140.529 218.364 138.098 218.364C135.668 218.364 125.817 221.2 123.791 223.087Z" fill="#0055D2" stroke="#263238" stroke-linecap="round" stroke-linejoin="round"/>
<path d="M138.374 183.391C138.447 180.069 140.367 178.433 140.513 176.156C140.741 173.147 140.492 170.12 139.775 167.188L136.081 162.141C125.452 162.279 117.837 162.457 117.716 162.498C117.31 162.627 117.035 164.928 116.768 166.816C116.768 166.816 112.255 167.391 113.065 179.948C113.179 181.698 117.732 201.943 118.064 204.252C120.089 218.356 124.602 225.42 124.602 225.42C124.602 225.42 125.007 227.178 130.273 226.773C135.538 226.368 140.804 222.86 140.804 222.86C140.804 222.86 138.098 195.405 138.374 183.391Z" fill="#263238" stroke="#263238" stroke-linecap="round" stroke-linejoin="round"/>
<path d="M116.038 164.758C116.038 164.758 110.457 165.568 107.038 169.473C103.619 173.378 106.519 175.954 113.163 175.257C119.806 174.561 127.469 167.764 127.793 167.399C128.118 167.034 120.867 162.417 116.038 164.758Z" fill="white" stroke="#263238" stroke-linecap="round" stroke-linejoin="round"/>
<path d="M125.946 167.188C129.503 167.371 133.031 167.914 136.478 168.809C141.072 170.162 149.173 172.859 151.06 172.859C152.948 172.859 152.413 165.836 152.413 164.491C152.413 163.146 128.11 162.328 125.136 162.328C122.163 162.328 125.946 167.188 125.946 167.188Z" fill="white" stroke="#263238" stroke-linecap="round" stroke-linejoin="round"/>
<path d="M152.413 164.491C152.413 164.491 150.25 165.568 149.44 169.619C148.63 173.67 147.552 175.833 149.173 176.91C150.793 177.988 157.817 178.798 158.894 177.72C159.972 176.643 162.945 171.239 163.488 167.732C164.03 164.224 152.413 164.491 152.413 164.491Z" fill="#0055D2" stroke="#263238" stroke-linecap="round" stroke-linejoin="round"/>
<path d="M161.592 165.835C160.336 167.277 159.334 168.92 158.627 170.696C158.054 172.555 157.603 174.45 157.274 176.367C159.859 177.075 162.386 177.98 164.833 179.073C169.159 180.96 176.45 182.313 183.466 183.934C190.481 185.554 192.377 187.174 194.807 187.174C197.238 187.174 200.211 185.278 203.994 180.693C207.778 176.108 204.529 166.378 200.754 163.405C196.979 160.432 176.717 158.01 174.02 158.82C171.322 159.63 161.592 165.835 161.592 165.835Z" fill="#263238" stroke="#263238" stroke-linecap="round" stroke-linejoin="round"/>
<path d="M110.926 175.33C110.393 172.907 109.312 170.637 107.767 168.695C107.516 168.93 107.273 169.173 107.038 169.441C104.032 172.859 105.912 175.29 110.926 175.33Z" fill="#0055D2" stroke="#263238" stroke-linecap="round" stroke-linejoin="round"/>
<path d="M137.961 177.469C137.961 177.469 135.174 207.29 129.487 211.932" stroke="white" stroke-width="0.5" stroke-linecap="round" stroke-linejoin="round"/>
<path d="M135.992 205.775C135.992 205.775 133.78 215.496 127.98 219.361" stroke="white" stroke-width="0.5" stroke-linecap="round" stroke-linejoin="round"/>
<path d="M171.856 172.05C171.856 172.05 163.212 172.593 168.883 176.368C174.554 180.143 184.818 182.581 184.818 182.581" stroke="white" stroke-width="0.5" stroke-linecap="round" stroke-linejoin="round"/>
<path d="M234.609 161.834L231.693 159.209L224.952 144.627C224.633 143.963 224.131 143.405 223.505 143.016C222.88 142.627 222.156 142.424 221.42 142.431H90.5031C89.7654 142.423 89.0405 142.625 88.4134 143.014C87.7864 143.403 87.2832 143.962 86.9629 144.627L78.5618 162.79L77.1765 162.28V166.436L77.2413 166.387C77.3238 166.941 77.6053 167.447 78.0331 167.809C78.4609 168.171 79.0059 168.366 79.5664 168.356H232.349C232.939 168.369 233.512 168.153 233.945 167.752C234.379 167.352 234.64 166.798 234.674 166.209L234.609 161.834Z" fill="#263238" stroke="#263238" stroke-linecap="round" stroke-linejoin="round"/>
<path d="M232.349 164.556H79.5665C79.1881 164.571 78.8121 164.49 78.4738 164.32C78.1355 164.15 77.8458 163.897 77.6321 163.584C77.4183 163.271 77.2874 162.91 77.2517 162.533C77.2159 162.156 77.2765 161.776 77.4277 161.429L86.963 140.827C87.2817 140.161 87.7845 139.601 88.4119 139.212C89.0393 138.822 89.765 138.621 90.5032 138.632H221.42C222.157 138.623 222.881 138.825 223.507 139.214C224.133 139.603 224.634 140.163 224.952 140.827L234.488 161.429C234.639 161.776 234.699 162.156 234.664 162.533C234.628 162.91 234.497 163.271 234.283 163.584C234.069 163.897 233.78 164.15 233.441 164.32C233.103 164.49 232.727 164.571 232.349 164.556Z" fill="white" stroke="#263238" stroke-linecap="round" stroke-linejoin="round"/>
<g style="mix-blend-mode:multiply" opacity="0.5">
<path d="M87.3031 150.719C87.3031 150.719 83.8438 153.092 86.0068 153.959C88.1699 154.826 113.033 154.178 116.063 153.311C119.093 152.444 122.544 144.448 122.544 143.152C122.544 141.856 118.185 140.924 116.581 140.851C114.977 140.778 93.7841 142.066 93.7841 142.066L87.3031 150.719Z" fill="#0055D2"/>
</g>
<g style="mix-blend-mode:multiply" opacity="0.5">
<path d="M210.978 154.826C215.872 154.826 219.84 153.179 219.84 151.148C219.84 149.116 215.872 147.47 210.978 147.47C206.083 147.47 202.115 149.116 202.115 151.148C202.115 153.179 206.083 154.826 210.978 154.826Z" fill="#0055D2"/>
</g>
<g style="mix-blend-mode:multiply" opacity="0.5">
<path d="M154.552 159.37C172.104 159.37 186.333 156.708 186.333 153.424C186.333 150.14 172.104 147.478 154.552 147.478C137 147.478 122.771 150.14 122.771 153.424C122.771 156.708 137 159.37 154.552 159.37Z" fill="#0055D2"/>
</g>
<path d="M204.496 136.68C204.496 136.68 203.913 134.355 201.977 135.132C200.041 135.91 200.235 141.046 200.616 143.955C200.997 146.863 203.621 145.502 203.621 145.502V143.76C203.621 143.76 202.657 144.53 202.171 143.469C201.685 142.407 201.782 137.069 202.268 137.166C202.755 137.263 203.719 138.908 203.719 138.908C203.719 138.908 204.01 138.721 204.496 136.68Z" fill="#0055D2" stroke="#263238" stroke-linecap="round" stroke-linejoin="round"/>
<path d="M203.103 137.068V149.803C203.103 151.302 206.546 152.517 210.799 152.517C215.052 152.517 218.487 151.302 218.487 149.803V137.068H203.103Z" fill="#0055D2" stroke="#263238" stroke-linecap="round" stroke-linejoin="round"/>
<path d="M218.487 137.068C218.487 138.364 215.044 139.409 210.799 139.409C206.554 139.409 203.103 138.364 203.103 137.068C203.103 135.772 206.546 134.727 210.799 134.727C215.052 134.727 218.487 135.78 218.487 137.068Z" fill="white" stroke="#263238" stroke-linecap="round" stroke-linejoin="round"/>
<path d="M217.483 137.068C217.483 138.194 214.485 139.102 210.799 139.102C207.113 139.102 204.108 138.194 204.108 137.068C204.108 135.942 207.105 135.035 210.799 135.035C214.494 135.035 217.483 135.942 217.483 137.068Z" fill="white" stroke="#263238" stroke-linecap="round" stroke-linejoin="round"/>
<path d="M205.639 138.364C209.006 139.347 212.584 139.347 215.952 138.364C212.584 137.381 209.006 137.381 205.639 138.364Z" fill="#263238" stroke="#263238" stroke-linecap="round" stroke-linejoin="round"/>
<path d="M86.3472 142.885L86.4444 147.243L115.812 147.535V142.496L86.3472 142.885Z" fill="white" stroke="#263238" stroke-linecap="round" stroke-linejoin="round"/>
<path d="M115.812 147.535L120.081 138.332V135.618L115.617 143.371L115.812 147.535Z" fill="white" stroke="#263238" stroke-linecap="round" stroke-linejoin="round"/>
<path d="M86.3472 146.854L86.4444 151.221L115.812 151.512V146.473L86.3472 146.854Z" fill="white" stroke="#263238" stroke-linecap="round" stroke-linejoin="round"/>
<path d="M115.812 151.513L120.081 142.301V139.587L115.617 147.34L115.812 151.513Z" fill="white" stroke="#263238" stroke-linecap="round" stroke-linejoin="round"/>
<path d="M97.6888 131.835C97.6888 131.835 98.3693 130.482 97.3971 129.899C96.425 129.315 95.3637 130.709 94.7804 131.154C94.1971 131.6 81.9885 139.685 81.5996 140.949C81.2107 142.213 81.5996 145 84.2163 145.307C86.8331 145.615 89.1581 143.857 90.3247 143.566C91.4913 143.274 91.945 143.177 91.945 143.177L99.9895 132.321L97.6888 131.835Z" fill="white" stroke="#263238" stroke-linecap="round" stroke-linejoin="round"/>
<path d="M84.2166 145.315C86.8333 145.607 89.1583 143.865 90.3249 143.574C91.4915 143.282 91.9452 143.185 91.9452 143.185L92.2368 142.788L84.6783 141.248C84.2674 140.861 83.7391 140.623 83.177 140.57C82.615 140.517 82.0514 140.653 81.5755 140.957C81.211 142.204 81.5998 145.016 84.2166 145.315Z" fill="white" stroke="#263238" stroke-linecap="round" stroke-linejoin="round"/>
<path d="M84.7026 141.264H107.386C114.467 141.264 116.597 140.876 116.597 140.876L120.956 131.859C120.956 131.859 107.184 132.734 102.931 132.442C101.173 132.392 99.4227 132.196 97.6971 131.859L84.7026 141.264Z" fill="white" stroke="#263238" stroke-linecap="round" stroke-linejoin="round"/>
<path d="M84.7026 141.264L85.0915 143.006C85.0915 143.006 103.506 143.103 108.35 143.103C113.195 143.103 116.881 143.298 116.881 143.298L116.589 140.867L84.7026 141.264Z" fill="white" stroke="#263238" stroke-linecap="round" stroke-linejoin="round"/>
<path d="M116.881 143.273L120.948 133.965V131.834L116.589 140.851L116.881 143.273Z" fill="white" stroke="#263238" stroke-linecap="round" stroke-linejoin="round"/>
<path d="M182.307 154.162H126.773C126.649 154.163 126.527 154.14 126.413 154.094C126.3 154.047 126.196 153.979 126.108 153.892C126.021 153.806 125.952 153.702 125.904 153.589C125.857 153.475 125.833 153.354 125.833 153.231C125.833 153.107 125.857 152.986 125.904 152.872C125.952 152.759 126.021 152.655 126.108 152.569C126.196 152.482 126.3 152.414 126.413 152.367C126.527 152.321 126.649 152.298 126.773 152.299H182.307C182.43 152.298 182.551 152.321 182.665 152.368C182.778 152.414 182.881 152.483 182.968 152.569C183.055 152.656 183.123 152.759 183.17 152.873C183.216 152.986 183.24 153.108 183.239 153.231C183.24 153.353 183.216 153.475 183.17 153.588C183.123 153.702 183.055 153.805 182.968 153.892C182.881 153.978 182.778 154.047 182.665 154.093C182.551 154.14 182.43 154.163 182.307 154.162Z" fill="white" stroke="#263238" stroke-linecap="round" stroke-linejoin="round"/>
<path d="M182.777 152.282H126.295C126.088 152.283 125.889 152.204 125.738 152.062C125.588 151.921 125.497 151.727 125.485 151.521L122.414 114.619C122.4 114.505 122.411 114.389 122.446 114.279C122.48 114.17 122.538 114.068 122.614 113.982C122.691 113.897 122.785 113.828 122.89 113.781C122.995 113.735 123.109 113.711 123.224 113.712H185.856C185.971 113.711 186.085 113.735 186.19 113.781C186.295 113.828 186.389 113.897 186.466 113.982C186.542 114.068 186.6 114.17 186.634 114.279C186.669 114.389 186.679 114.505 186.666 114.619L183.595 151.521C183.583 151.728 183.491 151.923 183.339 152.065C183.186 152.207 182.985 152.285 182.777 152.282Z" fill="white" stroke="#263238" stroke-linecap="round" stroke-linejoin="round"/>
<path d="M159.866 133.633C159.866 135.837 157.477 137.619 154.536 137.619C151.595 137.619 149.197 135.837 149.197 133.633C149.197 131.429 151.587 129.655 154.536 129.655C157.485 129.655 159.866 131.438 159.866 133.633Z" fill="white" stroke="#263238" stroke-linecap="round" stroke-linejoin="round"/>
<path d="M215.061 104.809C215.927 104.133 216.536 103.181 216.786 102.111C216.968 101.308 216.949 100.473 216.73 99.6804" stroke="#263238" stroke-linecap="round" stroke-linejoin="round"/>
<path d="M208.596 133.698C208.596 133.698 213.983 130.457 212.225 126.755C210.467 123.053 204.521 120.598 204.521 114.83C204.521 109.856 209.811 108.017 213.262 106.024" stroke="#263238" stroke-linecap="round" stroke-linejoin="round"/>
<path d="M213.57 133.592C213.57 133.592 216.576 131.591 216.576 128.415C216.576 126.285 214.299 124.891 211.293 121.464" stroke="#263238" stroke-linecap="round" stroke-linejoin="round"/>
<path d="M209.633 119.39C209.633 119.39 207.664 117.843 209.114 114.935" stroke="#263238" stroke-linecap="round" stroke-linejoin="round"/>
<path d="M164.022 34.53C164.987 34.3274 167.052 33.5335 168.446 30.3011C168.467 30.2522 168.479 30.1995 168.48 30.1461C168.481 30.0927 168.471 30.0396 168.452 29.9899C168.432 29.9402 168.403 29.8949 168.366 29.8565C168.329 29.8182 168.284 29.7875 168.235 29.7664C168.136 29.7253 168.025 29.7242 167.925 29.7635C167.825 29.8028 167.745 29.8794 167.7 29.977C166.42 32.9421 164.59 33.5983 163.828 33.7441C165.191 32.0949 165.943 30.0263 165.959 27.8869C165.959 22.2646 160.75 17.7117 154.325 17.7117C147.901 17.7117 142.692 22.2646 142.692 27.8869C142.696 29.94 143.38 31.9339 144.636 33.5578C143.413 33.493 141.347 34.0115 138.73 37.0657C138.655 37.1428 138.614 37.2459 138.614 37.3533C138.614 37.4606 138.655 37.5638 138.73 37.6409C138.805 37.7033 138.9 37.7377 138.998 37.7381C139.056 37.7381 139.115 37.7251 139.168 37.6999C139.221 37.6746 139.268 37.6379 139.305 37.5923C142.651 33.6955 144.863 34.3517 145.308 34.53C144.552 34.946 143.843 35.4431 143.194 36.0125C139.459 39.3745 137.183 45.7341 137.475 51.0323C137.802 54.5463 139.076 57.9059 141.161 60.7539C143.873 58.8126 146.122 56.295 147.747 53.3817C148.958 51.2417 150.04 49.0316 150.987 46.7629C150.987 49.1366 151.295 52.0045 152.543 54.0541C153.443 55.673 154.761 57.0204 156.36 57.9553C157.959 58.8902 159.78 59.3783 161.633 59.3685C162.272 59.3777 162.911 59.3152 163.536 59.1822C163.591 59.1685 163.643 59.1433 163.687 59.1084C163.732 59.0736 163.769 59.0297 163.796 58.9797C166.923 59.644 170.034 59.5873 170.512 58.923C171.281 57.8617 172.375 54.5483 172.739 50.4976C173.404 43.6277 169.078 37.6652 164.022 34.53ZM153.296 53.5599C151.725 50.9918 151.773 46.8034 151.96 44.3973L152.065 44.1219C152.14 46.5965 152.771 49.0226 153.911 51.2202C155.051 53.4178 156.671 55.3306 158.651 56.8166C159.745 57.5727 160.958 58.1396 162.24 58.4936C160.255 58.6313 156.172 58.2506 153.296 53.5599Z" fill="#263238"/>
<path d="M153.434 40.8083C153.434 40.8083 152.77 45.7177 159.008 50.5299C165.246 55.3421 171.159 53.4464 171.159 53.4464" stroke="white" stroke-width="0.5" stroke-linecap="round" stroke-linejoin="round"/>
<path d="M154.349 39.1882C154.349 39.1882 160.92 48.7559 169.993 46.2607" stroke="white" stroke-width="0.5" stroke-linecap="round" stroke-linejoin="round"/>
<path d="M151.101 36.0043C150.065 35.4782 148.904 35.2468 147.746 35.3354C146.587 35.4239 145.475 35.8291 144.531 36.5065C141.039 38.8316 139.289 44.3243 139.289 44.3243" stroke="white" stroke-width="0.5" stroke-linecap="round" stroke-linejoin="round"/>
<path d="M151.271 38.6698C151.271 38.6698 148.444 37.9164 146.694 39.6663C145.841 40.4392 145.112 41.338 144.531 42.3316" stroke="white" stroke-width="0.5" stroke-linecap="round" stroke-linejoin="round"/>
</svg>
