<svg width="30" height="30" viewBox="0 0 30 30" fill="none" xmlns="http://www.w3.org/2000/svg">
<path fill-rule="evenodd" clip-rule="evenodd" d="M5.65875 5.7525L6.36562 8.4375L8.5875 16.8844C8.79772 17.6837 9.1815 18.4269 9.71156 19.0611C10.2416 19.6952 10.9049 20.2048 11.6543 20.5535C12.4036 20.9023 13.2206 21.0815 14.0471 21.0787C14.8736 21.0758 15.6893 20.8908 16.4362 20.5369L24.9075 16.5244C25.87 16.0686 26.6833 15.3489 27.2529 14.4491C27.8224 13.5492 28.1249 12.5062 28.125 11.4413V9.375C28.125 8.38044 27.7299 7.42661 27.0266 6.72335C26.3234 6.02009 25.3696 5.625 24.375 5.625H8.5425L8.26125 4.62187C8.04207 3.83237 7.57034 3.13637 6.91819 2.64032C6.26604 2.14426 5.46937 1.87546 4.65 1.875H1.40625C1.03329 1.875 0.675604 2.02316 0.411881 2.28688C0.148158 2.5506 0 2.90829 0 3.28125C0 3.65421 0.148158 4.0119 0.411881 4.27562C0.675604 4.53934 1.03329 4.6875 1.40625 4.6875H4.65C4.85494 4.68738 5.05428 4.75442 5.2175 4.87836C5.38071 5.0023 5.49883 5.17631 5.55375 5.37375L5.65875 5.7525ZM15.2325 17.9963L23.7038 13.9838C24.1851 13.7558 24.5919 13.3958 24.8767 12.9457C25.1615 12.4956 25.3126 11.9739 25.3125 11.4413V9.375C25.3125 9.12636 25.2137 8.8879 25.0379 8.71209C24.8621 8.53627 24.6236 8.4375 24.375 8.4375H9.27375L11.3063 16.17C11.4116 16.5695 11.6036 16.9409 11.8687 17.2578C12.1339 17.5746 12.4655 17.8292 12.8402 18.0034C13.2148 18.1775 13.6233 18.267 14.0364 18.2655C14.4496 18.2639 14.8573 18.1714 15.2306 17.9944M22.5 27.6562C23.3702 27.6562 24.2048 27.3105 24.8202 26.6952C25.4355 26.0798 25.7812 25.2452 25.7812 24.375C25.7812 23.5048 25.4355 22.6702 24.8202 22.0548C24.2048 21.4395 23.3702 21.0938 22.5 21.0938C21.6298 21.0938 20.7952 21.4395 20.1798 22.0548C19.5645 22.6702 19.2188 23.5048 19.2188 24.375C19.2188 25.2452 19.5645 26.0798 20.1798 26.6952C20.7952 27.3105 21.6298 27.6562 22.5 27.6562ZM8.90625 24.375C8.90625 24.8059 8.82138 25.2326 8.65648 25.6307C8.49158 26.0288 8.24989 26.3905 7.94519 26.6952C7.6405 26.9999 7.27878 27.2416 6.88068 27.4065C6.48258 27.5714 6.0559 27.6562 5.625 27.6562C5.1941 27.6562 4.76742 27.5714 4.36932 27.4065C3.97122 27.2416 3.6095 26.9999 3.30481 26.6952C3.00011 26.3905 2.75842 26.0288 2.59352 25.6307C2.42862 25.2326 2.34375 24.8059 2.34375 24.375C2.34375 23.5048 2.68945 22.6702 3.30481 22.0548C3.92016 21.4395 4.75476 21.0938 5.625 21.0938C6.49524 21.0938 7.32984 21.4395 7.94519 22.0548C8.56055 22.6702 8.90625 23.5048 8.90625 24.375Z" fill="black"/>
</svg>
