<svg width="644" height="271" viewBox="0 0 644 271" fill="none" xmlns="http://www.w3.org/2000/svg">
<path d="M0.59082 260.207L80.9078 259.965L161.215 259.875L321.839 259.714L482.463 259.875L562.77 259.965L643.087 260.207L562.77 260.459L482.463 260.549L321.839 260.71L161.215 260.549L80.9078 260.459L0.59082 260.207Z" fill="#263238"/>
<path d="M313.121 260.187H436.576L411.967 116.996H319.643L313.121 260.187Z" fill="#DBDBDB"/>
<path d="M313.121 260.187H323.951L330.02 116.996H319.643L313.121 260.187Z" fill="#A6A6A6"/>
<path d="M420.392 145.066C434.362 176.266 468.119 228.05 483.227 215.217C505.822 196.034 521.121 153.601 527.16 136.44C530.551 126.828 481.586 110.745 478.587 119.471C474.319 131.871 467.626 157.787 463.751 161.461C461.738 163.383 445.695 140.869 433.557 130.19C416.034 114.801 415.934 135.101 420.392 145.066Z" fill="#E7B0A9"/>
<path d="M539.389 121.998C535.031 131.801 518.253 148.378 512.677 150.824C507.101 153.269 477.651 126.668 478.265 120.408C478.879 114.148 496.452 81.3565 506.185 76.3241C515.918 71.2917 543.908 111.833 539.389 121.998Z" fill="#E7B0A9"/>
<path d="M480.57 113.522C480.57 113.522 481.275 99.5724 477.752 87.7765C474.793 77.8627 469.288 63.4801 474.552 61.6886C485.381 58.0149 499.11 93.8959 499.11 93.8959C499.11 93.8959 502.632 110.704 492.235 115.294C485.713 118.172 480.57 113.522 480.57 113.522Z" fill="#E7B0A9"/>
<path d="M492.776 87.063C493.48 92.7093 499.731 88.6431 499.731 88.6431C499.731 88.6431 492.152 96.695 495.131 102.2C498.03 107.525 505.397 102.341 505.93 101.979C505.528 102.412 498.764 109.96 502.337 115.214C506.051 120.669 512.553 114.208 512.976 113.785C512.724 114.298 509.564 121.253 513.187 124.635C519.407 130.422 527.982 112.869 534.585 110.906C534.585 110.906 539.195 121.706 539.386 121.978C539.386 121.978 547.891 105.431 544.75 96.6748C544.31 95.3956 543.447 94.3046 542.304 93.5819C541.16 92.8591 539.804 92.5478 538.46 92.6992C538.46 92.6992 541.791 87.6668 539.114 83.4396C537.725 81.2757 533.075 81.5575 533.075 81.5575C533.075 81.5575 535.571 77.4209 532.954 73.8177C530.871 70.9291 526.493 71.6638 526.493 71.6638C526.493 71.6638 527.046 66.571 523.967 64.3165C517.706 59.7673 491.256 74.9752 492.776 87.063Z" fill="#E7B0A9"/>
<path d="M525.739 71.6926C525.83 71.6422 525.739 71.5114 525.689 71.5416C515.765 74.4201 505.75 80.5999 499.369 88.8228C499.158 89.0946 499.5 89.5475 499.792 89.2959C508.035 82.0996 515.835 76.3928 525.739 71.6926Z" fill="#263238"/>
<path d="M533.138 81.4263C533.249 81.376 533.138 81.1949 533.047 81.2251C522.832 84.2445 511.75 91.5515 505.5 101.868C505.289 102.22 505.45 102.754 505.732 102.371C510.402 95.8492 524.2 85.6234 533.138 81.4263Z" fill="#263238"/>
<path d="M512.786 114.639C519.157 104.977 527.984 98.324 538.039 92.7984C538.159 92.7279 538.039 92.5568 537.928 92.587C532.271 93.9458 526.233 98.1327 521.824 101.796C517.652 105.111 514.424 109.463 512.464 114.418C512.373 114.639 512.655 114.86 512.786 114.639Z" fill="#263238"/>
<path d="M499.533 88.6318C499.281 88.9539 500.036 88.964 499.795 89.2961C498.788 90.6851 493.404 99.5924 495.869 102.38C497.882 104.605 502.2 103.477 503.71 102.38L507.484 99.6528L504.887 103.568C503.719 105.283 502.835 107.177 502.271 109.174C501.958 110.084 501.842 111.049 501.931 112.007C502.019 112.965 502.31 113.893 502.784 114.73C503.228 115.505 503.926 116.104 504.76 116.425C505.595 116.746 506.514 116.769 507.363 116.491C509.257 115.84 510.951 114.713 512.285 113.22L516.11 109.194L513.815 114.227C513.174 115.619 512.71 117.086 512.436 118.595C512.129 120.012 512.244 121.489 512.768 122.842C513.028 123.438 513.447 123.95 513.98 124.321C514.514 124.692 515.139 124.908 515.788 124.946C517.258 124.796 518.654 124.231 519.814 123.315C522.355 121.373 524.741 119.236 526.95 116.924C528.107 115.797 529.264 114.659 530.482 113.572C531.626 112.428 532.998 111.536 534.508 110.956C533.073 111.683 531.794 112.685 530.744 113.905C529.627 115.062 528.56 116.27 527.493 117.488C525.396 120.002 523.072 122.316 520.548 124.402C519.195 125.55 517.538 126.281 515.778 126.506C514.807 126.515 513.855 126.243 513.035 125.724C512.215 125.204 511.563 124.458 511.158 123.577C510.453 121.916 510.261 120.083 510.604 118.313C510.875 116.629 511.365 114.988 512.064 113.431L513.594 114.438C512.043 116.228 510.051 117.581 507.816 118.363C506.564 118.764 505.211 118.714 503.992 118.222C502.813 117.706 501.817 116.847 501.133 115.756C500.534 114.694 500.167 113.517 500.056 112.303C499.945 111.088 500.092 109.864 500.489 108.711C501.132 106.524 502.135 104.459 503.458 102.602L504.636 103.749C502.623 105.058 497.953 106.849 494.44 103.799C490.555 99.0791 498.053 90.1617 499.533 88.6318Z" fill="#263238"/>
<path d="M499.731 88.6414C498.643 89.0754 497.496 89.3434 496.329 89.4365C495.86 89.4849 495.387 89.4068 494.959 89.2103C494.53 89.0139 494.162 88.7062 493.893 88.3193C493.419 87.3881 493.227 86.3388 493.34 85.2999C493.4 84.1525 493.521 82.9548 493.702 81.7168C492.936 82.7282 492.393 83.8913 492.112 85.1288C491.918 85.7965 491.859 86.496 491.936 87.1869C492.014 87.8779 492.228 88.5466 492.565 89.1547C493.005 89.7865 493.626 90.2706 494.346 90.5436C495.039 90.7701 495.782 90.798 496.49 90.6241C497.752 90.3212 498.887 89.6273 499.731 88.6414Z" fill="#263238"/>
<path d="M475.608 120.407L526.576 155.906C526.576 155.906 496.13 218.982 477.319 218.811C458.508 218.64 431.333 171.395 421.963 150.974C412.592 130.553 418.178 113.251 437.14 131.851C456.102 150.451 462.896 158.12 463.51 157.868C464.657 157.405 475.608 120.407 475.608 120.407Z" fill="#03ABAB"/>
<path d="M526.575 155.905C526.575 155.905 505.439 199.647 487.534 214.18C483.94 217.099 480.488 218.84 477.318 218.8C458.507 218.639 431.332 171.385 421.911 150.973C416.084 138.332 416.033 126.888 421.327 124.422C424.598 122.903 429.882 124.775 437.099 131.88C456.222 150.611 462.845 158.139 463.469 157.888C464.656 157.405 475.617 120.417 475.617 120.417L526.575 155.905Z" fill="#03ABAB"/>
<path d="M495.031 206.732C494.407 207.456 493.773 208.161 493.139 208.845C487.403 212.457 480.969 214.813 474.257 215.76C472.406 215.965 470.543 216.038 468.682 215.981L467.524 215.257C469.746 215.391 471.975 215.334 474.187 215.086C476.835 214.796 479.44 214.195 481.947 213.294L483.849 212.67L485.691 211.895C486.305 211.633 486.939 211.412 487.533 211.11L489.314 210.204C491.296 209.177 493.206 208.017 495.031 206.732ZM456.362 151.164C450.546 153.809 445.242 157.458 440.691 161.944C437.74 164.851 435.011 167.977 432.529 171.294C432.65 171.515 432.78 171.747 432.921 171.968C435.433 168.595 438.203 165.422 441.205 162.477C445.018 158.731 449.362 155.567 454.098 153.087L455.879 152.181C456.206 152.015 456.542 151.867 456.886 151.738L456.362 151.164ZM500.386 154.375C495.552 152.009 490.495 150.131 485.288 148.769C484.745 148.638 484.201 148.507 483.648 148.396C483.296 148.316 482.933 148.235 482.581 148.175C478.182 147.253 473.665 147.022 469.195 147.491C468.541 147.581 467.896 147.682 467.242 147.803C467.172 148.034 467.091 148.276 467.021 148.497C467.766 148.366 468.52 148.255 469.275 148.165C473.425 147.727 477.616 147.9 481.715 148.678L482.812 148.879C483.587 149.04 484.362 149.212 485.137 149.403C490.3 150.733 495.316 152.574 500.114 154.898C507.3 158.423 514.27 162.372 520.988 166.724C521.089 166.553 521.179 166.382 521.26 166.221C514.544 161.861 507.573 157.905 500.386 154.375ZM505.67 141.351C497.51 141.688 489.559 144.032 482.521 148.175L481.655 148.678C479.878 149.743 478.161 150.906 476.512 152.161C467.886 158.723 461.002 167.157 454.45 175.642C451.169 179.899 447.948 184.187 444.546 188.333C444.305 188.635 444.053 188.927 443.801 189.229L444.184 189.783C444.476 189.441 444.768 189.098 445.049 188.776C448.471 184.619 451.702 180.332 454.993 176.085C461.546 167.63 468.42 159.256 476.955 152.785C478.805 151.373 480.741 150.079 482.752 148.91C483.024 148.739 483.306 148.577 483.587 148.427C485.931 147.111 488.375 145.98 490.894 145.045L492.777 144.36C493.401 144.139 494.055 143.988 494.699 143.797L496.621 143.263L498.634 142.871C501.233 142.285 503.892 142.008 506.555 142.045H506.676L505.67 141.351ZM443.117 137.838C439.601 139.401 435.926 140.579 432.156 141.351L430.194 141.733C429.54 141.854 428.875 141.894 428.181 141.985L426.168 142.217L424.155 142.297C422.317 142.425 420.471 142.391 418.639 142.196L418.821 142.861C427.328 143.482 435.855 141.945 443.61 138.392C443.499 138.201 443.308 138.02 443.117 137.838ZM428.603 125.338C425.039 127.759 421.343 129.98 417.532 131.991C417.532 132.262 417.532 132.534 417.532 132.816C421.598 130.689 425.531 128.316 429.308 125.71C429.066 125.579 428.835 125.449 428.603 125.338Z" fill="white"/>
<path d="M514.526 161.823C513.177 160.706 511.819 159.619 510.45 158.532C507.672 156.338 504.894 154.154 502.116 151.98C496.581 147.662 490.924 143.495 485.227 139.399C481.997 137.064 478.816 134.608 475.485 132.424C475.469 132.412 475.451 132.403 475.432 132.398C475.412 132.393 475.392 132.392 475.373 132.395C475.353 132.398 475.334 132.405 475.317 132.415C475.3 132.425 475.285 132.438 475.273 132.454C475.261 132.47 475.253 132.488 475.248 132.507C475.243 132.526 475.242 132.546 475.245 132.566C475.247 132.586 475.254 132.604 475.264 132.621C475.274 132.639 475.288 132.653 475.304 132.665C477.951 135 480.789 137.134 483.537 139.358C486.284 141.583 489.012 143.817 491.8 145.991C497.342 150.299 502.952 154.523 508.628 158.663C510.208 159.83 511.768 161.058 513.409 162.155C514.244 162.719 515.039 163.343 515.885 163.886C516.73 164.43 517.636 164.893 518.461 165.507C518.48 165.517 518.502 165.521 518.524 165.517C518.545 165.513 518.564 165.501 518.577 165.484C518.591 165.467 518.598 165.446 518.597 165.424C518.596 165.402 518.587 165.382 518.572 165.366C517.193 164.208 515.905 162.95 514.526 161.823Z" fill="#263238"/>
<path d="M463.902 156.74C461.957 161.998 460.356 167.378 459.111 172.844C458.447 175.541 457.924 178.269 457.41 180.986C456.867 183.687 456.504 186.42 456.323 189.169C456.323 189.27 456.474 189.27 456.494 189.169C457.34 186.542 457.964 183.804 458.568 181.117C459.172 178.43 459.856 175.722 460.46 173.065C461.678 167.65 463.107 162.286 464.164 156.841C464.17 156.824 464.174 156.805 464.173 156.787C464.173 156.769 464.168 156.75 464.161 156.734C464.154 156.717 464.143 156.702 464.129 156.689C464.116 156.676 464.1 156.666 464.083 156.66C464.066 156.653 464.048 156.65 464.029 156.65C464.011 156.651 463.993 156.655 463.976 156.662C463.959 156.67 463.944 156.681 463.931 156.694C463.919 156.707 463.909 156.723 463.902 156.74Z" fill="#263238"/>
<path opacity="0.1" d="M487.534 214.181C483.94 217.099 480.488 218.841 477.318 218.8C458.507 218.639 431.332 171.385 421.911 150.974C416.084 138.332 416.033 126.889 421.327 124.423L487.534 214.181Z" fill="black"/>
<path d="M458.355 260.186H335.997C334.649 257.71 354.698 150.54 395.963 120.356C405.122 113.663 421.367 117.97 425.876 124.482C448.582 157.203 458.355 260.186 458.355 260.186Z" fill="#03ABAB"/>
<path d="M451.996 212.61C448.941 211.529 445.948 210.282 443.028 208.876C438.932 206.914 434.976 204.74 431.041 202.445L430.467 202.103C426.441 199.717 422.415 197.191 418.47 194.645L417.906 194.282L415.229 192.551C406.171 186.744 397.253 180.765 387.581 176.115C382.8 173.725 377.724 171.978 372.484 170.922C369.854 170.453 367.178 170.304 364.513 170.479C363.848 170.479 363.194 170.62 362.5 170.711C362.047 170.801 361.594 170.862 361.131 170.952C361.201 170.791 361.262 170.64 361.342 170.479C361.705 170.409 362.077 170.348 362.439 170.268C363.104 170.187 363.778 170.087 364.452 170.036C367.144 169.855 369.847 170.001 372.504 170.469C377.799 171.517 382.931 173.267 387.762 175.673C397.485 180.323 406.463 186.301 415.501 192.088L418.158 193.789L418.732 194.152C422.758 196.738 426.784 199.305 430.96 201.73L431.534 202.073C435.359 204.297 439.254 206.41 443.26 208.313C446.058 209.651 448.923 210.844 451.845 211.886L451.996 212.61ZM441.106 161.511L440.693 161.904C432.933 169.463 427.136 178.682 421.671 187.901C420.516 189.867 419.356 191.83 418.188 193.789C418.098 193.96 418.007 194.121 417.906 194.282C416.427 196.778 414.937 199.264 413.387 201.71C412.029 203.864 410.609 205.988 409.1 208.041C408.959 208.232 408.828 208.423 408.687 208.605C407.159 210.668 405.513 212.641 403.755 214.513C401.924 216.456 399.9 218.209 397.716 219.746L396.901 220.32C396.629 220.511 396.327 220.662 396.046 220.833L394.325 221.84C393.138 222.438 391.915 222.959 390.661 223.4C385.584 225.086 380.269 225.946 374.92 225.946C369.589 225.925 364.277 225.321 359.078 224.145C354.045 223.078 349.164 221.649 344.242 220.219C344.242 220.38 344.162 220.541 344.111 220.692C349.023 222.132 353.955 223.581 358.967 224.658C364.228 225.858 369.604 226.479 375 226.51C380.41 226.513 385.786 225.65 390.923 223.953C392.205 223.512 393.456 222.985 394.667 222.373L396.428 221.367C396.726 221.208 397.015 221.033 397.294 220.843L398.129 220.26C400.346 218.707 402.4 216.933 404.259 214.965C406.132 212.96 407.887 210.846 409.512 208.635C409.663 208.444 409.794 208.262 409.925 208.071C411.354 206.119 412.703 204.116 413.951 202.083C415.511 199.637 416.97 197.151 418.48 194.665L418.772 194.172L422.264 188.274C427.74 179.064 433.537 169.926 441.216 162.458L441.347 162.337C441.257 162.045 441.176 161.773 441.106 161.511ZM446.913 185.415C446.138 186.422 445.353 187.368 444.558 188.334C441.225 192.523 437.501 196.385 433.436 199.868C432.631 200.502 431.826 201.136 430.991 201.73L430.467 202.103C429.302 202.925 428.081 203.665 426.814 204.317L425.938 204.79C425.646 204.951 425.324 205.062 425.022 205.203L423.19 205.988C421.942 206.439 420.664 206.805 419.366 207.085C416.246 207.753 413.065 208.09 409.875 208.091H409.1C407.207 208.091 405.315 207.94 403.433 207.739C398.122 207.07 392.9 205.818 387.863 204.005C382.831 202.264 377.869 200.12 372.937 197.966C368.028 195.745 362.986 193.833 357.84 192.239C356.32 191.806 354.82 191.424 353.21 191.142L353.059 191.575C354.629 191.867 356.189 192.239 357.709 192.682C362.825 194.281 367.837 196.197 372.715 198.419C377.647 200.543 382.579 202.697 387.662 204.458C392.742 206.286 398.007 207.555 403.363 208.242C405.134 208.444 406.906 208.574 408.677 208.605C408.939 208.605 409.19 208.605 409.452 208.605C412.831 208.659 416.207 208.342 419.517 207.658C420.84 207.366 422.144 206.993 423.422 206.541L425.294 205.736C425.606 205.595 425.918 205.484 426.22 205.323L427.116 204.84C428.49 204.14 429.809 203.336 431.061 202.435L431.584 202.062C432.349 201.509 433.104 200.925 433.849 200.331C437.955 196.834 441.716 192.952 445.081 188.737C445.752 187.911 446.423 187.076 447.094 186.231C447.034 185.969 446.973 185.687 446.913 185.415ZM434.272 140.879C433.567 141.05 432.863 141.211 432.158 141.352L430.195 141.734C429.541 141.855 428.877 141.895 428.183 141.986L426.17 142.217L424.157 142.298C421.499 142.47 418.83 142.328 416.205 141.875C412.088 141.163 408.099 139.844 404.369 137.96L403.363 137.467C402.658 137.104 401.964 136.722 401.279 136.329C396.672 133.624 392.349 130.461 388.376 126.889L387.933 127.331C391.944 130.942 396.303 134.145 400.947 136.893C401.43 137.175 401.954 137.447 402.417 137.708L403.423 138.211C407.403 140.299 411.68 141.763 416.105 142.549C422.238 143.41 428.48 143.068 434.483 141.543C434.443 141.321 434.352 141.1 434.272 140.879ZM427.106 126.335C421.76 129.92 416.057 132.939 410.086 135.343C407.921 136.187 405.706 136.896 403.453 137.467L402.507 137.708C399.891 138.317 397.233 138.73 394.556 138.946L392.543 139.077C391.879 139.127 391.215 139.077 390.53 139.077H388.517L386.504 138.916C384.079 138.776 381.677 138.374 379.338 137.718C379.197 137.909 379.056 138.101 378.925 138.302C386.964 140.321 395.38 140.29 403.403 138.211L404.409 137.96C406.417 137.428 408.393 136.783 410.328 136.027C416.329 133.607 422.063 130.572 427.438 126.969L427.106 126.335ZM457.209 249.659C456.203 249.659 455.116 249.749 454.069 249.78H453.989L453.375 249.83C448.217 250.37 443.204 251.861 438.59 254.228C435.288 255.953 432.134 257.945 429.159 260.187H429.793C432.631 258.085 435.634 256.213 438.771 254.591C443.425 252.214 448.485 250.736 453.687 250.233H454.059H454.301C455.307 250.233 456.253 250.122 457.219 250.132C457.24 249.951 457.229 249.81 457.209 249.659ZM457.733 254.289C456.639 252.9 455.508 251.534 454.341 250.192C454.23 250.051 454.109 249.921 453.989 249.79L453.576 249.307C450.059 245.208 446.015 241.593 441.549 238.557C439.282 237.078 436.841 235.885 434.282 235.004C433.648 234.793 432.983 234.612 432.339 234.431C431.695 234.25 431.021 234.109 430.326 234.018C428.998 233.767 427.639 233.746 426.3 233.616C420.889 233.418 415.491 234.276 410.408 236.142C405.372 238.057 400.562 240.521 396.066 243.489C388.014 248.672 380.677 254.772 372.836 260.187H373.168C380.969 254.862 388.266 248.874 396.237 243.801C400.717 240.854 405.51 238.413 410.529 236.524C415.561 234.682 420.905 233.838 426.26 234.038C427.579 234.179 428.927 234.199 430.236 234.451C430.9 234.542 431.534 234.733 432.188 234.864C432.843 234.994 433.477 235.216 434.101 235.427C436.623 236.3 439.026 237.484 441.257 238.95C445.685 241.966 449.689 245.561 453.163 249.639C453.224 249.709 453.284 249.77 453.334 249.84L453.687 250.233C455.096 251.873 456.475 253.544 457.803 255.265C457.813 254.943 457.773 254.631 457.713 254.289H457.733Z" fill="white"/>
<path d="M379.721 133.49C354.811 162.306 321.235 213.204 334.953 224.456C357.508 242.955 423.383 253.644 438.5 255.435C445.022 256.22 458.086 213.586 453.728 208.07C449.37 202.555 379.721 198.66 379.248 194.382C378.977 191.957 389.555 170.861 396.359 144.984C404.179 115.152 386.737 125.368 379.721 133.49Z" fill="#E7B0A9"/>
<path d="M442.311 204.558C442.311 204.558 462.3 204.407 475.374 204.921C482.671 205.202 495.131 206.813 500.395 209.48C508.265 213.456 538.641 235.145 533.548 242.623C528.928 249.387 505.196 227.446 505.196 227.446C505.196 227.446 531.102 247.475 524.047 254.621C516.992 261.767 493.47 233.404 493.47 233.404C493.47 233.404 519.639 254.54 511.194 260.78C504.813 265.46 482.067 240.983 482.067 240.983C482.067 240.983 504.421 259.331 498.07 264.434C491.024 270.07 468.63 248.793 468.63 248.793C450.312 259.039 437.429 256.422 428.371 253.473C426.247 252.718 442.311 204.558 442.311 204.558Z" fill="#E7B0A9"/>
<path d="M496.682 219.948C499.812 222.192 502.993 224.437 505.912 226.993C508.83 229.55 511.659 232.116 514.336 234.894C520.888 241.698 523.928 246.972 523.696 246.67C518.422 239.433 508.116 230.284 505.197 227.768C502.278 225.252 499.49 222.605 496.582 220.099C496.511 219.988 496.612 219.898 496.682 219.948Z" fill="#263238"/>
<path d="M487.423 230.325C491.288 233.344 495.244 236.223 498.978 239.433C502.712 242.644 507.764 247.274 511.257 250.716C511.518 250.978 511.257 251.481 510.975 251.229C507.351 247.928 501.967 243.419 498.303 240.158C494.64 236.897 491.107 233.505 487.343 230.395C487.282 230.385 487.363 230.274 487.423 230.325Z" fill="#263238"/>
<path d="M477.842 237.791C483.992 242.129 489.336 247.595 494.449 253.08C494.711 253.352 494.449 253.392 494.127 253.13C488.702 247.947 484.475 243.84 477.691 238.033C477.611 237.912 477.741 237.701 477.842 237.791Z" fill="#263238"/>
<path d="M439.504 203.924C448.623 203.863 475.406 203.793 484.504 204.497C492.556 205.111 499.189 206.842 505.942 211.311C520.435 220.893 529.776 232.145 532.111 235.467C533.52 237.48 535.563 240.731 533.701 242.985C531.416 245.723 523.012 243.045 514.145 235.024C513.823 234.732 514.024 234.551 514.356 234.823C526.806 244.887 531.758 243.74 533.057 242.019C533.902 240.902 533.057 238.999 532.332 237.49C531.12 235.353 529.638 233.381 527.924 231.622C522.205 225.504 515.878 219.984 509.042 215.146C501.718 209.679 492.993 206.402 483.88 205.695C474.56 204.93 448.774 205.172 439.464 204.276C439.273 204.216 439.303 203.934 439.504 203.924Z" fill="#263238"/>
<path d="M525.53 250.595C525.016 248.109 523.225 245.835 521.806 243.781C520.082 241.198 518.102 238.793 515.898 236.605C515.807 236.515 515.636 236.605 515.727 236.746C517.604 238.941 519.349 241.247 520.95 243.651C521.802 244.973 522.575 246.344 523.265 247.757C523.919 249.116 524.694 250.686 524.352 252.236C523.708 255.195 519.944 255.124 517.719 254.329C516.278 253.787 514.89 253.113 513.573 252.316C511.778 251.173 510.075 249.891 508.48 248.482C508.349 248.361 507.987 248.411 508.128 248.542C511.449 251.702 517.74 258.275 522.873 255.869C523.858 255.434 524.661 254.67 525.146 253.708C525.63 252.746 525.766 251.646 525.53 250.595Z" fill="#263238"/>
<path d="M442.613 201.971L418.669 256.321C418.669 256.321 334.99 237.43 330.139 221.547C325.288 205.665 351.506 163.172 375.169 136.641C398.439 110.573 401.881 128.257 396.093 148.417C390.306 168.576 380.815 191.816 381.872 193.557C382.929 195.298 442.613 201.971 442.613 201.971Z" fill="#03ABAB"/>
<path d="M387.261 175.432C387.2 175.583 387.15 175.744 387.09 175.895C382.441 173.608 377.515 171.937 372.435 170.923C369.806 170.454 367.129 170.305 364.464 170.48C363.8 170.48 363.146 170.621 362.451 170.711C361.757 170.802 361.143 170.912 360.499 171.094C359.19 171.375 357.952 171.879 356.674 172.271C351.742 174.148 347.218 176.957 343.348 180.544L343.982 179.447C347.673 176.188 351.921 173.621 356.523 171.869C357.811 171.466 359.069 170.953 360.398 170.671C361.052 170.49 361.727 170.409 362.411 170.268C363.095 170.127 363.75 170.087 364.424 170.037C367.115 169.856 369.819 170.001 372.476 170.47C377.599 171.474 382.569 173.142 387.261 175.432ZM431.546 202.073L430.972 201.731L428.677 200.372L427.289 200.211C428.295 200.845 429.392 201.489 430.449 202.103L431.023 202.445C434.042 204.207 437.061 205.898 440.161 207.478L440.403 206.924C437.424 205.384 434.475 203.764 431.546 202.073ZM415.211 198.742C414.607 199.748 413.993 200.755 413.369 201.711C412.01 203.865 410.591 205.988 409.081 208.041C408.94 208.233 408.81 208.424 408.669 208.605C407.141 210.669 405.494 212.641 403.737 214.513C401.905 216.457 399.882 218.21 397.698 219.747L396.883 220.321C396.611 220.512 396.309 220.663 396.027 220.834L394.306 221.84C393.12 222.439 391.896 222.96 390.643 223.4C385.566 225.086 380.251 225.946 374.901 225.947C369.578 225.924 364.272 225.32 359.079 224.145C353.836 223.028 348.693 221.508 343.529 220.009C338.95 218.68 334.34 217.341 329.63 216.466C329.63 216.627 329.63 216.788 329.63 216.939C334.29 217.814 338.849 219.163 343.409 220.482C348.562 221.991 353.725 223.501 358.989 224.658C364.25 225.859 369.626 226.48 375.022 226.51C380.432 226.513 385.807 225.65 390.945 223.954C392.227 223.513 393.478 222.985 394.689 222.374L396.45 221.367C396.748 221.208 397.037 221.034 397.316 220.844L398.151 220.26C400.368 218.708 402.422 216.934 404.28 214.966C406.154 212.961 407.908 210.847 409.534 208.635C409.685 208.444 409.816 208.263 409.947 208.072C411.376 206.119 412.725 204.116 413.973 202.083C414.657 201.016 415.322 199.929 415.986 198.852L415.211 198.742ZM432.24 200.755C431.828 201.077 431.405 201.399 430.972 201.701L430.449 202.073C429.284 202.895 428.063 203.635 426.795 204.287L425.92 204.76C425.628 204.921 425.306 205.032 425.004 205.173L423.172 205.958C421.923 206.409 420.645 206.776 419.347 207.055C416.228 207.723 413.047 208.061 409.856 208.062H409.081C407.189 208.062 405.297 207.911 403.415 207.709C398.103 207.041 392.882 205.788 387.845 203.975C382.812 202.234 377.85 200.09 372.919 197.936C368.01 195.716 362.968 193.803 357.821 192.21C352.658 190.73 347.153 189.925 341.808 190.972C340.108 191.313 338.462 191.886 336.917 192.673C336.816 192.874 336.716 193.085 336.625 193.287C338.279 192.405 340.052 191.767 341.889 191.394C347.143 190.388 352.578 191.173 357.691 192.652C362.807 194.251 367.819 196.167 372.697 198.389C377.629 200.513 382.561 202.667 387.643 204.428C392.729 206.268 398.001 207.547 403.365 208.243C405.136 208.444 406.907 208.575 408.679 208.605C408.94 208.605 409.192 208.605 409.454 208.605C412.833 208.66 416.208 208.343 419.519 207.659C420.842 207.367 422.146 206.994 423.424 206.542L425.296 205.737C425.608 205.596 425.92 205.485 426.222 205.324L427.117 204.841C428.492 204.14 429.811 203.336 431.063 202.435L431.586 202.063C432.11 201.681 432.593 201.278 433.156 200.875L432.24 200.755ZM388.418 126.839C387.986 126.456 387.563 126.084 387.14 125.691L386.597 126.044L388.006 127.302C391.282 130.236 394.782 132.911 398.473 135.303C398.473 135.052 398.473 134.8 398.473 134.558C394.94 132.25 391.586 129.68 388.438 126.869L388.418 126.839ZM394.538 138.917L392.525 139.047C391.86 139.098 391.196 139.047 390.512 139.047H388.499L386.486 138.886C383.824 138.727 381.19 138.261 378.635 137.497C377.518 137.165 376.411 136.783 375.324 136.34L375.082 136.612L374.851 136.873C376.024 137.365 377.224 137.792 378.444 138.152C384.819 139.854 391.476 140.224 398 139.239C398 138.987 398.07 138.745 398.111 138.494C396.994 138.715 395.776 138.856 394.558 138.947L394.538 138.917ZM426.302 233.586C420.889 233.398 415.491 234.266 410.41 236.142C405.374 238.057 400.564 240.521 396.068 243.49C393.551 245.12 391.096 246.831 388.67 248.593L389.062 248.703C391.418 247.002 393.803 245.362 396.249 243.802C400.728 240.854 405.522 238.414 410.541 236.525C415.573 234.683 420.917 233.838 426.272 234.039C426.966 234.109 427.661 234.15 428.355 234.21L428.547 233.787C427.832 233.727 427.067 233.687 426.322 233.616L426.302 233.586Z" fill="white"/>
<path d="M409.069 247.334C409.885 245.784 410.67 244.234 411.455 242.674C413.031 239.513 414.602 236.346 416.165 233.173C419.265 226.872 422.204 220.491 425.032 214.049C426.652 210.406 428.414 206.803 429.873 203.089C429.891 203.052 429.892 203.009 429.878 202.97C429.864 202.931 429.835 202.9 429.798 202.883C429.76 202.865 429.718 202.863 429.679 202.878C429.64 202.892 429.609 202.921 429.591 202.958C427.85 206.028 426.34 209.239 424.73 212.389C423.12 215.539 421.479 218.659 419.929 221.84C416.843 228.14 413.85 234.491 410.951 240.892C410.136 242.684 409.25 244.455 408.516 246.287C408.133 247.223 407.69 248.129 407.318 249.075C406.946 250.021 406.664 250.987 406.312 251.923C406.307 251.933 406.304 251.944 406.304 251.955C406.303 251.966 406.305 251.977 406.309 251.987C406.312 251.997 406.318 252.007 406.326 252.015C406.333 252.023 406.342 252.029 406.352 252.034C406.362 252.039 406.372 252.041 406.383 252.042C406.394 252.042 406.405 252.041 406.416 252.037C406.426 252.033 406.435 252.027 406.443 252.02C406.451 252.013 406.458 252.004 406.462 251.994C407.278 250.434 408.234 248.924 409.069 247.334Z" fill="#263238"/>
<path d="M420.475 252.588L418.794 256.393L418.744 256.513H418.583C410.662 255.044 402.791 253.283 394.971 251.32C387.15 249.357 379.39 247.133 371.711 244.657C364.004 242.221 356.446 239.338 349.075 236.021C345.377 234.358 341.805 232.427 338.387 230.244C336.681 229.132 335.069 227.883 333.565 226.51C332.016 225.181 330.828 223.481 330.113 221.568C331.003 223.364 332.303 224.926 333.908 226.128C335.496 227.348 337.183 228.436 338.95 229.379C342.446 231.322 346.056 233.053 349.76 234.562C357.157 237.632 364.756 240.249 372.395 242.704C380.035 245.16 387.744 247.445 395.474 249.639C403.204 251.833 410.964 254.007 418.734 256.091L418.532 256.191L420.475 252.588Z" fill="#263238"/>
<path d="M441.658 204.086L442.493 201.922L442.584 202.073C434.19 201.52 425.806 200.845 417.422 199.97C409.038 199.094 400.704 198.138 392.371 196.89C390.287 196.568 388.204 196.226 386.12 195.823C385.114 195.612 384.037 195.41 382.96 195.108C382.688 195.028 382.427 194.947 382.135 194.837C381.967 194.782 381.806 194.711 381.652 194.625C381.534 194.562 381.423 194.488 381.32 194.404C381.211 194.313 381.119 194.204 381.048 194.082C381.007 194.003 380.97 193.923 380.937 193.84C380.931 193.8 380.931 193.759 380.937 193.719C380.897 193.336 380.917 192.949 380.998 192.572C381.048 192.3 381.098 192.008 381.169 191.757C382.235 187.58 383.584 183.634 384.953 179.679C387.691 171.718 390.67 163.857 393.81 156.047C391.384 164.099 388.898 172.151 386.422 180.202C385.235 184.228 383.926 188.254 383.01 192.28C382.95 192.532 382.92 192.763 382.87 193.005C382.819 193.246 382.87 193.528 382.819 193.427C382.808 193.374 382.788 193.323 382.759 193.277C382.759 193.176 382.578 193.075 382.618 193.095C382.568 193.095 382.658 193.115 382.618 193.095L382.87 193.196L383.534 193.407C384.54 193.669 385.547 193.86 386.553 194.062C388.566 194.434 390.67 194.756 392.733 195.068C396.88 195.692 401.033 196.279 405.193 196.829L417.684 198.51C426.007 199.617 434.331 200.805 442.654 202.023H442.805L442.745 202.154L441.658 204.086Z" fill="#263238"/>
<path d="M394.706 161.199C394.115 162.619 393.369 163.969 392.481 165.225C391.647 166.51 390.63 167.666 389.462 168.657C390.227 167.319 391.042 166.05 391.908 164.792C392.748 163.525 393.683 162.324 394.706 161.199Z" fill="#263238"/>
<path d="M419.094 142.61C411.988 144.623 399.186 134.226 393.932 125.56C393.57 124.966 394.999 100.489 394.778 95.6072C394.778 94.6007 425.717 101.646 425.717 101.646C425.717 101.646 423.17 112.013 423.613 120.518C423.643 121.242 425.948 140.657 419.094 142.61Z" fill="#E7B0A9"/>
<path d="M394.303 110.936C408.786 121.161 422.897 117.236 423.491 117.055C423.729 111.867 424.446 106.712 425.634 101.656C425.634 101.656 394.635 94.6105 394.685 95.617C394.866 97.9017 394.615 104.504 394.303 110.936Z" fill="#263238"/>
<path d="M425.566 81.4849C426.361 88.7114 432.149 94.0055 438.479 93.301C444.81 92.5964 449.309 86.1852 448.544 78.9687C447.779 71.7523 441.972 66.4481 435.631 67.1527C429.29 67.8572 424.771 74.2684 425.566 81.4849Z" fill="#455A64"/>
<path d="M421.9 82.3514C422.785 90.4032 429.217 96.271 436.262 95.496C443.307 94.721 448.34 87.5851 447.424 79.5433C446.508 71.5015 440.117 65.6237 433.061 66.3987C426.006 67.1737 421.014 74.3197 421.9 82.3514Z" fill="#C7C7C7"/>
<path d="M390.489 58.8305C387.108 69.6804 392.653 101.103 400.333 108.148C411.474 118.364 429.813 119.441 438.508 106.034C446.943 93.0307 438.992 52.218 430.396 45.8067C417.745 36.3458 395.481 42.8175 390.489 58.8305Z" fill="#E7B0A9"/>
<path d="M416.597 78.5572C416.597 78.4867 416.456 78.688 416.476 78.7786C416.939 80.8721 417.13 83.3581 415.359 84.4249C415.298 84.4249 415.359 84.5658 415.359 84.5356C417.664 83.7607 417.382 80.4695 416.597 78.5572Z" fill="#263238"/>
<path d="M414.29 76.7161C410.848 77.1086 411.885 83.9728 415.075 83.6105C418.266 83.2481 417.179 76.394 414.29 76.7161Z" fill="#263238"/>
<path d="M428.815 76.9057C428.815 76.8251 428.996 76.9862 429.006 77.0768C429.258 79.2105 429.912 81.6059 431.935 82.0287C431.995 82.0287 432.015 82.1494 431.935 82.1494C429.529 82.1696 428.714 78.9689 428.815 76.9057Z" fill="#263238"/>
<path d="M430.374 74.3807C433.755 73.6057 435.054 80.4195 431.924 81.1442C428.793 81.8689 427.515 75.055 430.374 74.3807Z" fill="#263238"/>
<path d="M411.114 73.9883C411.977 73.59 412.817 73.1431 413.63 72.6497C414.581 72.3022 415.391 71.6514 415.935 70.7978C416.053 70.4956 416.067 70.1629 415.976 69.8516C415.885 69.5403 415.694 69.2678 415.432 69.0767C414.859 68.7763 414.216 68.6347 413.57 68.6665C412.924 68.6984 412.299 68.9026 411.758 69.2579C410.545 69.8048 409.58 70.7846 409.051 72.0056C408.945 72.2905 408.925 72.6002 408.992 72.8965C409.06 73.1928 409.213 73.4629 409.432 73.6735C409.651 73.8841 409.927 74.0261 410.226 74.082C410.525 74.138 410.833 74.1054 411.114 73.9883Z" fill="#263238"/>
<path d="M432.551 70.5456C431.6 70.4986 430.653 70.4012 429.713 70.2537C428.702 70.2917 427.708 69.9945 426.884 69.4082C426.658 69.1732 426.517 68.8696 426.482 68.5452C426.447 68.2208 426.522 67.8942 426.693 67.6167C427.115 67.1246 427.659 66.7528 428.27 66.5389C428.882 66.3251 429.539 66.2767 430.176 66.3989C431.504 66.454 432.764 67.0032 433.708 67.9388C433.911 68.1627 434.044 68.4406 434.092 68.7388C434.14 69.037 434.1 69.3426 433.977 69.6186C433.855 69.8946 433.655 70.1291 433.402 70.2936C433.148 70.4582 432.853 70.5457 432.551 70.5456Z" fill="#263238"/>
<path d="M417.764 98.4757C418.348 98.8984 418.962 99.4821 419.777 99.4821C420.565 99.349 421.316 99.0506 421.981 98.6065C421.993 98.5918 422.01 98.5825 422.029 98.5806C422.048 98.5787 422.067 98.5844 422.082 98.5964C422.096 98.6084 422.106 98.6258 422.108 98.6447C422.109 98.6635 422.104 98.6824 422.092 98.6971C421.853 99.1628 421.491 99.5544 421.046 99.8294C420.601 100.104 420.089 100.252 419.565 100.257C419.116 100.212 418.69 100.033 418.342 99.7445C417.994 99.4559 417.741 99.0702 417.613 98.6367C417.522 98.5361 417.673 98.4153 417.764 98.4757Z" fill="#263238"/>
<path d="M419.034 91.7829C419.7 92.541 420.516 93.1532 421.431 93.581C422.345 94.0088 423.339 94.243 424.348 94.2689C425.232 94.3037 426.116 94.2122 426.975 93.9971C427.14 93.9669 427.302 93.9197 427.458 93.8562C427.611 93.817 427.762 93.77 427.911 93.7153C428.021 93.6781 428.116 93.6059 428.182 93.5095C428.247 93.4132 428.279 93.2982 428.273 93.1819C428.267 93.1093 428.25 93.038 428.223 92.9705V92.7894C428.011 91.1488 427.478 88.6829 427.478 88.6829C428.122 88.8943 431.383 89.8001 431.202 88.9547C429.712 81.9093 428.052 74.1393 425.082 67.4865C425.062 67.4426 425.027 67.4075 424.983 67.3874C424.939 67.3673 424.89 67.3637 424.844 67.3771C424.797 67.3905 424.757 67.4201 424.731 67.4605C424.705 67.5009 424.694 67.5494 424.7 67.5972C425.868 74.3909 428.223 80.933 429.511 87.7268C428.351 87.3864 427.147 87.2136 425.938 87.2135C425.717 87.3141 427.055 91.954 427.085 92.6988C427.092 92.7252 427.092 92.7528 427.085 92.7793C424.388 93.5442 422.194 93.0309 419.245 91.5917C419.023 91.491 418.883 91.6319 419.034 91.7829Z" fill="#263238"/>
<path d="M425.878 93.3129C425.162 94.6155 424.122 95.7111 422.858 96.4934C422.153 96.8951 421.342 97.0707 420.533 96.9966C418.772 96.8054 418.52 95.2554 418.601 93.8765C418.668 93.1434 418.82 92.4206 419.054 91.7227C421.101 92.9655 423.492 93.5226 425.878 93.3129Z" fill="#263238"/>
<path d="M422.847 96.5234C422.141 96.9252 421.33 97.1008 420.522 97.0267C418.76 96.8355 418.509 95.2855 418.589 93.9066C420.471 93.7858 422.424 94.752 422.847 96.5234Z" fill="#FF99BA"/>
<path opacity="0.2" d="M395.641 69.9923C394.403 73.1124 391.857 80.4396 390.407 80.9529C389.029 70.7673 388.978 61.5278 391.504 55.8513C392.549 53.5068 394.016 51.3744 395.832 49.5608C396.044 52.2883 396.96 66.7313 395.641 69.9923Z" fill="#263238"/>
<path d="M422.869 55.4272C422.007 56.9209 420.776 58.1681 419.294 59.0494C417.812 59.9306 416.128 60.4162 414.404 60.4596C412.649 60.5055 410.912 60.1025 409.357 59.2887C407.801 58.475 406.48 57.2775 405.517 55.8097C405.512 55.8005 405.504 55.7923 405.496 55.7858C405.488 55.7793 405.478 55.7745 405.468 55.7717C405.457 55.7689 405.447 55.7681 405.436 55.7695C405.426 55.7708 405.415 55.7742 405.406 55.7795C405.397 55.7848 405.389 55.7919 405.382 55.8003C405.376 55.8087 405.371 55.8183 405.368 55.8286C405.365 55.8389 405.365 55.8496 405.366 55.8602C405.367 55.8708 405.371 55.881 405.376 55.8902C406.251 57.5284 407.558 58.896 409.155 59.845C410.751 60.7941 412.577 61.2886 414.434 61.2749C416.254 61.1723 418.014 60.5928 419.539 59.5946C421.063 58.5965 422.298 57.2148 423.12 55.5883C423.142 55.5549 423.149 55.5144 423.14 55.4757C423.132 55.4371 423.108 55.4033 423.075 55.382C423.041 55.3606 423.001 55.3534 422.962 55.3619C422.924 55.3704 422.89 55.3939 422.869 55.4272Z" fill="#263238"/>
<path d="M443.862 39.2341C442.412 36.5596 440.063 34.4845 437.23 33.3763C433.304 31.8264 429.369 32.863 425.474 33.9802C425.453 33.9802 425.432 33.9887 425.417 34.0038C425.402 34.0189 425.394 34.0394 425.394 34.0608C425.394 34.0821 425.402 34.1026 425.417 34.1177C425.432 34.1328 425.453 34.1413 425.474 34.1413C428.785 33.2053 432.207 32.4504 435.589 33.477C438.388 34.3144 440.813 36.0919 442.453 38.5094C444.054 41.0128 444.699 44.0085 444.272 46.9488C443.845 49.8891 442.374 52.5775 440.128 54.5225C438.805 55.6088 437.273 56.4129 435.627 56.8854C433.98 57.3579 432.255 57.4888 430.557 57.2702C430.426 57.2702 430.366 57.4513 430.506 57.4715C432.818 57.8637 435.194 57.6035 437.366 56.7202C439.539 55.8368 441.422 54.3653 442.804 52.4708C444.186 50.5764 445.012 48.3341 445.191 45.9959C445.369 43.6576 444.891 41.316 443.812 39.2341H443.862Z" fill="#263238"/>
<path d="M389.573 65.1006C389.573 65.1006 382.297 55.7504 385.819 48.9969C387.832 45.1623 396.498 44.1055 396.498 44.1055C396.498 44.1055 398.511 39.6669 405.365 36.7883C412.219 33.9098 421.469 35.6007 421.469 35.6007C421.469 35.6007 427.618 30.4878 434.664 33.0241C444.487 36.5669 445.735 50.3657 437.522 56.304C431.745 60.4809 422.204 56.3946 422.204 56.3946C421.398 56.6462 413.85 63.2084 406.16 56.7971C406.16 56.7971 401.782 62.3127 396.558 59.8971C396.064 61.3736 395.13 62.6635 393.882 63.5936C392.633 64.5238 391.13 65.0497 389.573 65.1006Z" fill="#263238"/>
<path d="M397.041 84.4449C397.041 84.4449 389.804 74.3801 385.235 76.9868C380.666 79.5936 386.242 94.2178 391.636 96.1099C392.314 96.408 393.044 96.5661 393.784 96.5748C394.524 96.5835 395.259 96.4426 395.943 96.1607C396.627 95.8787 397.247 95.4614 397.766 94.9338C398.286 94.4062 398.693 93.7793 398.963 93.0905L397.041 84.4449Z" fill="#E7B0A9"/>
<path d="M386.926 81.1533C386.836 81.1533 386.826 81.264 386.926 81.2942C390.741 82.7838 392.784 86.2662 394.233 89.8896C393.086 88.5006 391.546 87.7558 389.684 89.1246C389.583 89.1951 389.684 89.3461 389.785 89.3259C390.448 89.1146 391.16 89.1123 391.824 89.3193C392.488 89.5264 393.073 89.9328 393.499 90.4834C394.215 91.4201 394.825 92.4327 395.32 93.5028C395.501 93.835 396.105 93.6437 395.974 93.2613V93.1707C395.974 88.2792 392.12 81.566 386.926 81.1533Z" fill="#263238"/>
<path d="M391.012 77.4005C391.012 77.4005 387.097 61.8001 390.147 52.2385C393.539 41.6101 406.331 31.2031 421.448 35.6216C421.448 35.6216 404.67 37.7855 396.518 51.8057C392.774 58.2472 396.367 76.8469 396.367 76.8469L391.012 77.4005Z" fill="#C7C7C7"/>
<path d="M407.257 82.6535C408.786 90.7053 404.328 98.2942 397.282 99.6429C390.237 100.992 383.272 95.6169 381.732 87.5651C380.192 79.5133 384.661 71.9244 391.707 70.5757C398.752 69.2271 405.717 74.6218 407.257 82.6535Z" fill="#C7C7C7"/>
<path d="M403.452 82.9161C404.831 90.1325 400.815 97.0068 394.485 98.1843C388.154 99.3619 381.894 94.5107 380.515 87.3043C379.136 80.0979 383.142 73.2136 389.472 72.036C395.803 70.8584 402.064 75.6895 403.452 82.9161Z" fill="#455A64"/>
<path d="M4.0918 260.186H127.547L102.928 116.995H10.6138L4.0918 260.186Z" fill="#DBDBDB"/>
<path d="M4.0918 260.186H14.9115L20.9906 116.995H10.6138L4.0918 260.186Z" fill="#A6A6A6"/>
<path d="M77.2621 54.5422C65.7983 65.9456 62.5071 84.7365 62.5071 84.7365C62.5071 84.7365 51.5164 103.648 54.5861 113.924C55.3981 116.838 56.9047 119.511 58.9768 121.715C61.0488 123.918 63.6244 125.586 66.4827 126.576L65.3957 120.899C65.3957 120.899 69.0794 128.196 81.3887 131.135C93.6979 134.074 109.983 130.29 118.457 126.002C123.48 123.488 127.766 119.715 130.897 115.052L127.727 123.305C127.727 123.305 139.674 122.882 146.77 110.17C153.865 97.4584 133.484 79.1909 131.753 75.2555C130.022 71.3202 127.828 42.6456 97.6634 47.5874C97.7037 47.517 85.1931 46.6916 77.2621 54.5422Z" fill="#263238"/>
<path d="M62.1665 125.76C59.0263 123.414 55.9263 120.727 54.1952 117.406C52.3075 113.963 51.6372 109.984 52.2929 106.113C53.1283 101.473 55.574 97.3769 57.9493 93.3811C60.3246 89.3854 63.183 85.3293 65.5684 81.1323C65.6992 80.9008 65.3469 80.7096 65.1859 80.8907C62.5058 84.0382 60.0057 87.3346 57.6977 90.7643C55.3364 93.9003 53.3502 97.3019 51.7796 100.9C50.3116 104.212 49.8294 107.878 50.3907 111.457C50.9844 114.367 52.2762 117.089 54.1549 119.389C56.3792 122.156 59.1873 123.928 62.0054 126.011C62.1665 126.142 62.3376 125.89 62.1665 125.76Z" fill="#263238"/>
<path d="M149.359 97.026C145.736 86.468 136.275 79.7649 130.468 70.5556C127.348 65.5735 124.922 60.058 120.856 55.7301C120.745 55.6094 120.544 55.8006 120.645 55.9214C123.986 59.8165 125.918 64.5066 128.334 69.0056C130.908 73.4329 133.915 77.5933 137.312 81.4256C143.29 88.5917 150.446 97.0763 149.078 107.111C148.444 111.741 145.706 116.874 140.955 118.313C140.774 118.373 140.885 118.675 141.066 118.595C142.94 117.843 144.64 116.717 146.064 115.286C147.489 113.855 148.606 112.148 149.349 110.271C150.95 106.002 150.954 101.298 149.359 97.026Z" fill="#263238"/>
<path d="M149.792 99.8629C150.119 95.8642 149.197 91.8625 147.155 88.4092C145.071 85.0073 141.8 82.5515 138.529 80.3574C134.755 77.8513 130.779 75.4659 128.384 71.4903C128.283 71.3192 128.042 71.4903 128.132 71.6614C131.937 78.2236 139.204 81.2833 144.065 86.8089C149.651 93.1195 149.661 102.309 145.816 109.525C143.373 113.924 139.924 117.683 135.751 120.496C135.681 120.496 135.751 120.647 135.832 120.596C142.948 115.926 149.218 108.74 149.792 99.8629Z" fill="#263238"/>
<path d="M104.178 147.963C134.725 164.731 171.29 185.777 193.694 180.825C203.628 178.631 248.235 120.154 250.128 113.391C251.748 107.583 211.358 84.2029 206.849 88.7823C199.24 96.4618 178.667 139.7 175.648 140.425C172.629 141.149 146.984 135.946 120.292 131.125C94.6064 126.515 82.9715 136.328 104.178 147.963Z" fill="#F4C3B8"/>
<path d="M245.789 120.678C249.272 116.29 263.483 94.7714 266.09 87.8971C268.697 81.0229 274.796 60.7222 269.744 58.1657C264.691 55.6093 262.457 61.3965 262.457 61.3965C262.457 61.3965 263.675 52.4087 258.35 50.3253C253.026 48.2419 249.805 57.3706 249.805 57.3706C249.805 57.3706 250.379 48.0506 244.914 46.2994C239.449 44.5481 237.758 54.3512 237.758 54.3512C237.758 54.3512 238.684 45.8565 233.591 46.2994C227.471 46.8932 227.552 62.7553 224.09 70.1227C223.305 71.7935 205.762 102.914 205.762 102.914L245.789 120.678Z" fill="#F4C3B8"/>
<path d="M237.878 53.5565C237.878 65.2216 235.865 70.3345 229.826 80.0571C229.705 80.2383 229.957 80.4597 230.108 80.2785C236.952 71.3007 240.394 65.2619 238.481 53.5263C238.351 52.9526 237.878 53.003 237.878 53.5565Z" fill="#263238"/>
<path d="M249.743 56.4545C248.737 68.5322 246.583 74.1283 240.937 84.7869C240.856 84.9378 241.108 85.0888 241.198 84.9378C247.61 74.9536 250.911 68.8342 250.347 56.6055C250.377 56.0519 249.794 55.9009 249.743 56.4545Z" fill="#263238"/>
<path d="M262.114 61.9296C260.272 73.5846 258.199 79.7845 251.395 89.4266C251.377 89.4484 251.364 89.4735 251.356 89.5005C251.348 89.5275 251.345 89.5558 251.348 89.5838C251.351 89.6119 251.359 89.6391 251.372 89.6639C251.385 89.6887 251.404 89.7107 251.425 89.7286C251.447 89.7464 251.472 89.7598 251.499 89.7679C251.526 89.7761 251.555 89.7788 251.583 89.776C251.611 89.7732 251.638 89.7649 251.663 89.7516C251.688 89.7383 251.709 89.7202 251.727 89.6984C259.628 80.5394 262.275 72.8298 262.466 62.0202C262.456 61.2955 262.235 61.1949 262.114 61.9296Z" fill="#263238"/>
<path d="M197.114 106.437C197.114 106.437 196.259 91.8534 197.306 85.3616C198.352 78.8698 211.125 56.1033 216.157 58.5792C222.709 61.7899 217.918 76.3838 214.637 83.2279C214.637 83.2279 229.795 90.6154 228.627 101.838C227.46 113.06 197.114 106.437 197.114 106.437Z" fill="#F4C3B8"/>
<path d="M217.709 60.0476C221.574 67.2842 216.702 75.9903 214.005 82.8645C213.961 82.9639 213.942 83.0724 213.949 83.1808C213.956 83.2892 213.989 83.3944 214.045 83.4873C214.101 83.5802 214.179 83.6581 214.272 83.7144C214.365 83.7707 214.47 83.8037 214.579 83.8106C220.728 87.3333 228.378 94.0968 229.032 101.545C229.032 101.59 229.05 101.634 229.082 101.666C229.114 101.698 229.158 101.716 229.203 101.716C229.248 101.716 229.292 101.698 229.324 101.666C229.356 101.634 229.374 101.59 229.374 101.545C229.756 93.4929 222.782 86.206 215.807 82.7739C218.665 75.7286 223.184 66.8212 217.82 60.0074C217.749 59.9772 217.689 60.0074 217.709 60.0476Z" fill="#263238"/>
<path d="M168.382 138.039L131.615 168.858C131.615 168.858 109.171 157.182 92.5942 143.766C76.0174 130.35 94.3756 123.828 122.839 128.608C151.302 133.389 168.382 138.039 168.382 138.039Z" fill="#03ABAB"/>
<path d="M124.83 144.229C123.788 142.807 122.582 141.513 121.237 140.374C122.726 143.573 124.877 146.421 127.547 148.728C126.826 147.124 125.914 145.613 124.83 144.229ZM92.6227 143.786L93.0655 144.128C93.3574 143.816 93.6493 143.484 93.921 143.121C93.458 143.333 93.0253 143.554 92.6025 143.826L92.6227 143.786ZM154.169 143.987C152.43 143.732 150.667 143.678 148.915 143.826C150.558 144.446 152.267 144.875 154.008 145.104C155.746 145.368 157.51 145.425 159.262 145.275C157.613 144.649 155.897 144.217 154.149 143.987H154.169ZM141.86 132.07C141.837 132.742 141.86 133.415 141.93 134.083C142.176 133.479 142.384 132.861 142.554 132.231L141.86 132.07Z" fill="white"/>
<path d="M123.381 162.275C130.86 155.089 138.851 148.416 146.953 141.914C149.248 140.082 151.583 138.291 153.999 136.57C154.069 136.519 154.16 136.57 154.089 136.66C150.285 140.173 146.329 143.524 142.394 146.896C138.459 150.268 134.473 153.64 130.437 156.911C128.152 158.763 125.878 160.615 123.563 162.416C123.422 162.487 123.291 162.366 123.381 162.275Z" fill="#263238"/>
<path d="M147.235 155.764L131.604 168.848C131.604 168.848 109.16 157.183 92.5828 143.766C86.6949 139.006 85.2154 135.121 87.017 132.292L147.235 155.764Z" fill="#263238"/>
<path d="M139.665 260.065H22.501C22.501 260.065 47.9548 161.763 71.5165 134.084C72.0399 133.45 72.5834 132.847 73.1269 132.283C73.2376 132.152 73.3382 132.061 73.449 131.951C75.2729 130.002 77.3965 128.358 79.7394 127.079C80.1521 126.858 80.5648 126.647 80.9975 126.465C90.0559 122.289 99.6577 125.751 106.572 131.669C108.766 133.541 133.606 165.889 135.76 178.178C137.662 189.058 130.315 200.744 130.315 200.744L139.665 260.065Z" fill="#03ABAB"/>
<path d="M112.765 196.536C107.776 197.023 102.831 197.881 97.9696 199.103C95.5541 199.747 93.1989 200.492 90.8337 201.287C89.6561 201.689 88.4785 202.052 87.2909 202.404C86.0543 202.806 84.7734 203.056 83.4763 203.149C83.4523 203.149 83.4293 203.158 83.4123 203.175C83.3953 203.192 83.3857 203.215 83.3857 203.239C83.3857 203.263 83.3953 203.286 83.4123 203.303C83.4293 203.32 83.4523 203.33 83.4763 203.33C84.7051 203.382 85.936 203.348 87.16 203.229C88.3386 203.082 89.5055 202.853 90.6525 202.545C93.1083 201.911 95.5239 201.176 97.9696 200.532C102.901 199.223 107.823 197.915 112.835 196.959C112.891 196.95 112.941 196.918 112.974 196.872C113.007 196.826 113.021 196.768 113.011 196.712C113.002 196.656 112.971 196.606 112.925 196.573C112.878 196.54 112.821 196.527 112.765 196.536Z" fill="#263238"/>
<path d="M125.142 200.854C121.025 200.459 116.888 200.294 112.752 200.361C110.739 200.412 108.636 200.573 106.572 200.784C105.566 200.895 104.56 201.015 103.634 201.146C102.708 201.277 101.5 201.579 100.423 201.71C100.312 201.71 100.312 201.901 100.423 201.891C101.429 201.801 102.486 201.891 103.513 201.841L106.603 201.73C108.616 201.67 110.719 201.619 112.782 201.529C116.909 201.358 121.026 201.227 125.152 201.187C125.374 201.197 125.353 200.875 125.142 200.854Z" fill="#263238"/>
<path d="M60.3859 157.193C59.8323 156.488 59.2687 155.794 58.6547 155.18L58.2219 156.085C58.6245 156.709 59.0573 157.323 59.5002 157.917C60.5428 159.329 61.7489 160.613 63.0933 161.742C62.3586 160.132 61.4508 158.606 60.3859 157.193ZM73.9834 131.407C73.7784 132.978 73.7446 134.568 73.8827 136.147C74.508 134.497 74.9305 132.776 75.1408 131.024C75.1408 130.762 75.2113 130.491 75.2415 130.229C74.8188 130.601 74.3961 130.994 73.9834 131.407ZM109.542 164.157C108.916 165.806 108.483 167.522 108.254 169.27C108 171.013 107.943 172.779 108.083 174.534C108.715 172.889 109.141 171.171 109.351 169.421C109.627 167.681 109.692 165.913 109.542 164.157ZM87.1482 220.842C86.5279 222.485 86.1023 224.194 85.88 225.935C85.6247 227.678 85.5707 229.444 85.7189 231.199C86.9152 227.885 87.4021 224.356 87.1482 220.842ZM49.0831 178.047C48.4686 179.701 48.0431 181.42 47.8149 183.17C47.5588 184.909 47.5047 186.672 47.6539 188.424C48.2699 186.774 48.6921 185.058 48.912 183.311C49.1758 181.569 49.2332 179.802 49.0831 178.047ZM80.5859 170.861C78.8466 170.605 77.0837 170.551 75.3321 170.7C76.975 171.319 78.6839 171.748 80.4249 171.978C82.1633 172.241 83.9268 172.299 85.6787 172.149C84.0413 171.512 82.3358 171.066 80.596 170.82L80.5859 170.861ZM122.737 219.172C120.995 218.916 119.228 218.862 117.473 219.011C120.787 220.207 124.316 220.694 127.83 220.44C126.19 219.818 124.485 219.386 122.747 219.151L122.737 219.172ZM44.0507 214.532C42.3413 214.284 40.61 214.223 38.8875 214.351H38.7868H38.8774C40.5033 214.95 42.1913 215.365 43.9098 215.588C45.6491 215.844 47.412 215.898 49.1636 215.75C47.5121 215.147 45.7964 214.739 44.0507 214.532ZM88.2553 256.089C86.516 255.834 84.7531 255.78 83.0014 255.928C86.3184 257.127 89.8512 257.61 93.3682 257.347C91.704 256.733 89.9751 256.311 88.215 256.089H88.2553ZM40.7092 250.996C38.9666 250.741 37.2003 250.687 35.4453 250.835C37.0893 251.448 38.798 251.87 40.5381 252.093C42.2794 252.364 44.0474 252.418 45.802 252.255C44.1451 251.639 42.4226 251.217 40.6689 250.996H40.7092ZM89.4027 145.839C87.9849 146.894 86.6916 148.106 85.5478 149.453C87.1538 148.722 88.6729 147.814 90.077 146.745C91.4921 145.695 92.7761 144.478 93.9016 143.122C92.3066 143.86 90.7978 144.771 89.4027 145.839ZM101.943 199.716C100.529 200.756 99.2448 201.963 98.1188 203.309C99.7199 202.583 101.23 201.671 102.618 200.592C104.035 199.555 105.319 198.348 106.442 196.999C104.842 197.735 103.333 198.654 101.943 199.736V199.716ZM57.9703 232.648C56.5478 233.686 55.2597 234.896 54.1356 236.251C55.7307 235.514 57.2395 234.603 58.6346 233.534C60.0495 232.484 61.3424 231.279 62.4894 229.941C60.8736 230.655 59.3551 231.571 57.9703 232.668V232.648ZM131 185.273C129.959 183.851 128.753 182.558 127.407 181.419C128.896 184.618 131.047 187.466 133.718 189.772C132.995 188.176 132.083 186.672 131 185.293V185.273ZM116.014 246.236C114.964 244.821 113.759 243.528 112.421 242.381C113.126 243.997 114.036 245.516 115.128 246.9C116.168 248.318 117.374 249.605 118.721 250.735C117.987 249.14 117.079 247.631 116.014 246.236ZM71.8899 198.287C70.8453 196.868 69.6395 195.574 68.2968 194.432C69.0104 196.046 69.9234 197.564 71.0143 198.951C72.0511 200.371 73.2578 201.659 74.6074 202.786C73.8745 201.189 72.9628 199.679 71.8899 198.287Z" fill="white"/>
<path d="M69.1211 134.849C46.5861 153.016 -11.1254 225.009 1.88834 241.646C14.9021 258.283 101.399 250.705 126.511 242.834C133.979 240.499 113.608 193.104 105.536 190.92C98.8123 189.098 61.5323 200.119 60.8076 197.965C59.9924 195.529 70.0169 182.053 82.7589 152.855C97.4535 119.178 79.0752 126.827 69.1211 134.849Z" fill="#F4C3B8"/>
<path d="M146.247 186.964C163.468 188.977 167.584 192.107 183.014 186.068C193.139 182.113 200.013 186.873 192.606 195.418C180.528 209.398 157.741 211.522 149.639 209.952L146.247 186.964Z" fill="#F4C3B8"/>
<path d="M97.9453 191.524C97.9453 191.524 119.313 185.998 137.872 186.3C150.715 186.511 178.594 190.084 197.516 223.409C202.005 231.31 202.8 245.763 190.773 235.487C182.238 228.21 179.027 221.013 173.29 217.682C173.29 217.682 172.113 236.171 164.021 240.368C156.943 244.027 149.614 247.179 142.089 249.799C141.292 248.532 140.58 247.214 139.956 245.853C139.956 245.853 132.025 249.054 119.826 244.615L97.9453 191.524Z" fill="#F4C3B8"/>
<path d="M150.103 188.464C155.136 192.973 165.522 202.696 171.239 213.626C177.64 225.764 186.699 250.866 177.691 255.506C171.088 258.908 166.78 249.618 166.78 249.618C166.78 249.618 168.341 260.79 161.748 262.551C155.709 264.162 152.8 256.774 152.8 256.774C152.8 256.774 152.579 263.709 146.46 264.142C139.092 264.645 140.763 250.051 132.852 244.103C131.071 242.764 150.103 188.464 150.103 188.464Z" fill="#F4C3B8"/>
<path d="M157.33 218.307C161.356 223.339 167.506 237.027 166.982 249.437C166.982 249.719 166.751 249.86 166.71 249.598C164.822 238.852 161.635 228.375 157.219 218.398C157.207 218.383 157.202 218.364 157.203 218.345C157.205 218.326 157.215 218.309 157.229 218.297C157.244 218.285 157.263 218.279 157.282 218.281C157.301 218.283 157.318 218.292 157.33 218.307Z" fill="#263238"/>
<path d="M145.262 225.069C148.282 229.749 154.009 244.192 153.042 256.723C153.042 257.005 152.791 257.125 152.761 256.864C151.43 246.028 148.874 235.378 145.142 225.119C145.141 225.105 145.145 225.091 145.153 225.08C145.161 225.068 145.172 225.059 145.185 225.053C145.198 225.048 145.212 225.046 145.226 225.049C145.24 225.052 145.253 225.059 145.262 225.069Z" fill="#263238"/>
<path d="M173.322 217.602C178.354 220.621 181.162 224.174 184.907 228.532C186.737 230.715 188.685 232.795 190.744 234.763C192.636 236.524 195.424 239.171 198.263 237.913C199.843 237.208 200.275 235.316 200.406 233.746C200.53 231.981 200.273 230.209 199.651 228.553C199.651 228.472 199.772 228.412 199.802 228.502C200.42 229.964 200.827 231.506 201.01 233.082C201.249 234.563 201.035 236.082 200.396 237.44C198.826 240.218 195.203 239.694 192.928 238.235C191.583 237.303 190.332 236.241 189.194 235.064C188.077 233.967 187.01 232.82 185.973 231.653C183.85 229.237 181.867 226.711 179.773 224.285C177.722 221.972 175.523 219.793 173.191 217.763C173.101 217.683 173.221 217.542 173.322 217.602Z" fill="#263238"/>
<path d="M179.724 239.603C179.13 236.151 174.863 221.316 173.172 217.702C173.161 217.684 173.159 217.662 173.164 217.641C173.17 217.62 173.184 217.602 173.202 217.592C173.221 217.581 173.243 217.578 173.264 217.584C173.285 217.59 173.302 217.603 173.313 217.622C176.503 222.725 180.529 235.115 181.234 238.929C181.938 242.744 182.613 247.464 181.636 251.218C180.167 256.875 176.141 256.975 174.682 256.895C172.958 256.769 171.328 256.059 170.062 254.882C168.62 253.378 167.497 251.597 166.761 249.648C166.761 249.558 166.851 249.477 166.902 249.568C168.291 252.305 170.978 255.355 174.158 255.747C174.863 255.857 175.582 255.824 176.273 255.651C176.964 255.478 177.614 255.169 178.184 254.741C179.379 253.597 180.119 252.06 180.268 250.413C180.707 246.805 180.523 243.149 179.724 239.603Z" fill="#263238"/>
<path d="M153.043 256.724C153.657 257.599 154.674 260.367 157.119 261.535C157.97 262.019 158.926 262.29 159.904 262.323C160.882 262.357 161.854 262.152 162.736 261.726C164.417 260.682 165.626 259.025 166.107 257.106C166.514 254.65 166.733 252.167 166.761 249.678C166.761 249.558 166.912 249.548 166.922 249.678C167.236 252.378 167.141 255.109 166.641 257.781C166.404 258.827 165.961 259.816 165.337 260.689C164.713 261.562 163.921 262.301 163.007 262.863C162.04 263.392 160.944 263.642 159.843 263.587C158.742 263.532 157.677 263.174 156.767 262.551C155.851 261.917 153.194 259.049 152.741 256.794C152.751 256.724 153.013 256.683 153.043 256.724Z" fill="#263238"/>
<path d="M133.626 243.217C134.354 244.023 134.985 244.911 135.508 245.864C136.102 246.87 136.666 247.826 137.199 248.833C138.259 250.867 139.106 253.005 139.725 255.214C140.369 257.428 140.873 259.844 142.392 261.665C143.104 262.566 144.081 263.22 145.184 263.534C146.288 263.848 147.463 263.807 148.542 263.417C149.684 262.963 150.634 262.127 151.229 261.051C151.919 259.892 152.38 258.61 152.588 257.277C152.584 257.265 152.582 257.252 152.584 257.239C152.585 257.226 152.59 257.214 152.597 257.203C152.605 257.192 152.615 257.184 152.626 257.178C152.638 257.172 152.651 257.168 152.664 257.168C152.677 257.168 152.689 257.172 152.701 257.178C152.712 257.184 152.722 257.192 152.73 257.203C152.737 257.214 152.742 257.226 152.743 257.239C152.745 257.252 152.744 257.265 152.739 257.277C152.653 258.486 152.444 259.683 152.115 260.85C151.735 261.898 151.086 262.829 150.233 263.547C149.339 264.23 148.274 264.653 147.156 264.771C146.037 264.888 144.908 264.694 143.892 264.212C141.638 263.205 140.369 260.931 139.584 258.676C138.709 256.17 138.125 253.583 137.129 251.107C136.615 249.799 136.122 248.49 135.498 247.232C134.874 245.974 134.008 244.666 133.485 243.317C133.425 243.237 133.545 243.126 133.626 243.217Z" fill="#263238"/>
<path d="M125.764 246.337C128.946 246.797 132.165 246.955 135.376 246.81C135.477 246.81 135.537 247.102 135.437 247.122C133.845 247.42 132.225 247.545 130.606 247.494C128.964 247.425 127.342 247.109 125.795 246.558C125.664 246.488 125.664 246.316 125.764 246.337Z" fill="#263238"/>
<path d="M26.9399 208.744C32.3202 206.148 37.8802 203.941 43.577 202.142C49.2142 200.38 54.9734 199.034 60.8079 198.116C64.1393 197.563 67.4809 197.17 70.8727 196.757C70.9733 196.757 70.9935 196.898 70.8727 196.908C65.0101 197.857 59.2067 199.141 53.4908 200.753C47.8008 202.303 42.1444 203.957 36.5216 205.715C33.3411 206.721 30.2009 207.849 27.0506 208.946C26.9399 209.026 26.8392 208.815 26.9399 208.744Z" fill="#263238"/>
<path d="M22.0391 178.56L69.7361 183.744C69.7361 183.744 81.9044 161.601 88.2352 141.2C94.5659 120.798 76.5902 124.764 55.585 144.541C34.5798 164.319 22.0391 178.56 22.0391 178.56Z" fill="#03ABAB"/>
<path d="M22.0391 178.56L69.7361 183.744C69.7361 183.744 81.9044 161.601 88.2352 141.2C94.5659 120.798 76.5902 124.764 55.585 144.541C34.5798 164.319 22.0391 178.56 22.0391 178.56Z" fill="#03ABAB"/>
<path d="M74.0655 130.742C74.0704 130.792 74.0704 130.843 74.0655 130.893C73.8101 132.636 73.7561 134.402 73.9045 136.157C74.5297 134.507 74.9522 132.786 75.1626 131.034C75.1626 130.732 75.2431 130.44 75.2733 130.138L74.0655 130.742ZM49.0847 178.047C48.6478 179.145 48.311 180.28 48.0782 181.438L49.0847 181.539C49.1953 180.378 49.1953 179.208 49.0847 178.047ZM32.5382 167.307L32.0752 167.791C32.5986 167.791 33.0817 167.791 33.6554 167.7C33.2729 167.549 32.9106 167.418 32.5382 167.307ZM75.3437 170.659C75.6255 170.77 75.9174 170.88 76.2093 170.971C76.2614 170.84 76.3219 170.712 76.3905 170.589C76.0483 170.599 75.696 170.619 75.3437 170.659ZM60.3875 157.192C59.3374 155.777 58.1322 154.484 56.7943 153.338C57.5021 154.955 58.4118 156.477 59.5017 157.867C60.5444 159.279 61.7505 160.563 63.0949 161.691C62.357 160.099 61.4493 158.59 60.3875 157.192Z" fill="white"/>
<path d="M67.8016 183.3C68.0633 183.3 69.8146 183.3 69.8146 183.3C70.0259 182.686 74.1324 173.235 75.1388 171.223C77.2122 167.086 79.5271 163.06 81.7816 159.024C81.8521 158.893 82.0534 159.024 81.9829 159.115C80.3927 162.637 78.8628 166.16 77.2424 169.703C77.645 169.23 78.0476 168.757 78.4401 168.274C79.2352 167.267 79.9599 166.261 80.7147 165.194C80.7852 165.103 80.9261 165.194 80.8758 165.304C80.1555 166.76 79.245 168.114 78.1683 169.33C77.7113 169.865 77.2168 170.366 76.6888 170.83C76.558 171.122 76.4271 171.424 76.2862 171.706C75.2798 173.719 70.3178 183.864 70.1366 183.854L67.8419 183.572C67.6708 183.612 67.6708 183.29 67.8016 183.3Z" fill="#263238"/>
<path d="M31.0272 170.457C41.3738 171.152 51.6902 172.571 61.9462 174.181C64.8583 174.644 67.7502 175.171 70.622 175.762C70.7026 175.762 70.7026 175.902 70.622 175.892C65.4689 175.439 60.3258 174.775 55.1827 174.141C50.0395 173.507 44.8562 172.823 39.7131 172.007C36.8144 171.565 33.9057 171.122 31.0171 170.629C30.8963 170.639 30.8963 170.447 31.0272 170.457Z" fill="#263238"/>
<path d="M85.8506 127.824C86.0318 129.917 93.8219 144.471 103.152 145.366C106.171 145.648 108.496 129.132 108.496 129.132L108.939 127.954L115.21 111.428L96.9923 95.6766L94.3453 93.563C94.3453 93.563 92.9261 98.1928 91.2252 103.98C91.1447 104.252 91.0541 104.524 90.9736 104.805C90.893 105.087 90.7723 105.439 90.6817 105.741C90.42 106.607 90.1483 107.483 89.9067 108.368C89.7155 109.043 89.5242 109.697 89.3431 110.381C89.1619 111.066 88.9807 111.79 88.7794 112.495C87.4554 117.532 86.4768 122.653 85.8506 127.824Z" fill="#F4C3B8"/>
<path d="M91.2246 103.98C92.262 109.022 94.3836 113.777 97.4424 117.917C100.501 122.057 104.424 125.482 108.939 127.954L115.209 111.428L96.9917 95.6766L94.3447 93.563C94.3447 93.563 92.9256 98.1928 91.2246 103.98Z" fill="#263238"/>
<path d="M120.724 86.045C122.324 93.0904 128.665 97.7302 134.885 96.3312C141.105 94.9322 144.839 88.0378 143.239 80.9522C141.638 73.8666 135.298 69.2569 129.078 70.666C122.858 72.0751 119.124 78.9493 120.724 86.045Z" fill="#455A64"/>
<path d="M117.169 87.3126C118.961 95.1933 126.006 100.316 132.931 98.7563C139.855 97.1962 144.002 89.5369 142.221 81.6461C140.439 73.7553 133.384 68.6424 126.469 70.2025C119.555 71.7625 115.388 79.4117 117.169 87.3126Z" fill="#C7C7C7"/>
<path d="M137.523 77.2283C145.978 107.07 129.059 115.475 122.617 117.326C116.77 118.977 96.6602 123.848 85.1662 95.0329C73.6722 66.2174 84.8743 52.8514 98.039 48.3726C111.204 43.8937 129.069 47.3761 137.523 77.2283Z" fill="#F4C3B8"/>
<path d="M127.136 73.4737C126.427 73.544 125.715 73.5743 125.002 73.5642C124.253 73.7073 123.478 73.5975 122.798 73.2522C122.605 73.1026 122.466 72.8931 122.404 72.6563C122.342 72.4196 122.361 72.1691 122.456 71.9438C122.713 71.5291 123.076 71.1908 123.508 70.9642C123.94 70.7377 124.425 70.6311 124.912 70.6555C125.903 70.5453 126.9 70.8071 127.71 71.3902C127.885 71.5364 128.014 71.7297 128.081 71.9471C128.149 72.1645 128.153 72.3968 128.093 72.6164C128.032 72.8359 127.91 73.0335 127.74 73.1855C127.571 73.3375 127.361 73.4375 127.136 73.4737Z" fill="#263238"/>
<path d="M107.459 80.4196C108.143 80.2077 108.815 79.9591 109.472 79.6748C110.217 79.5102 110.889 79.1074 111.385 78.5274C111.502 78.313 111.546 78.0659 111.51 77.8241C111.473 77.5823 111.359 77.3591 111.183 77.1888C110.784 76.9078 110.317 76.7382 109.831 76.6975C109.344 76.6569 108.856 76.7465 108.415 76.9573C107.461 77.2445 106.647 77.8757 106.131 78.7287C106.025 78.9299 105.979 79.1575 106 79.384C106.021 79.6104 106.106 79.8261 106.247 80.0049C106.387 80.1838 106.577 80.3181 106.792 80.3916C107.007 80.4652 107.239 80.4749 107.459 80.4196Z" fill="#263238"/>
<path d="M113.499 85.6824C113.499 85.6019 113.368 85.8233 113.398 85.9038C114.042 87.9168 114.405 90.3323 112.794 91.53C112.744 91.53 112.794 91.6609 112.845 91.6407C114.978 90.6846 114.415 87.4639 113.499 85.6824Z" fill="#263238"/>
<path d="M111.061 84.0723C107.72 84.7568 109.33 91.3794 112.43 90.7453C115.53 90.1112 113.859 83.4987 111.061 84.0723Z" fill="#263238"/>
<path d="M109.843 84.7366C109.36 85.2599 108.947 86.0551 108.273 86.2966C107.598 86.5382 106.703 86.0249 106.018 85.4814C105.948 85.431 105.897 85.4814 105.918 85.5921C106.209 86.8602 107.015 88.0479 108.424 87.907C109.833 87.7661 110.326 86.4375 110.326 85.0788C110.336 84.8272 110.044 84.5353 109.843 84.7366Z" fill="#263238"/>
<path d="M125.263 82.0494C125.263 81.9689 125.454 82.1098 125.464 82.1903C125.887 84.2637 126.712 86.5685 128.735 86.8101C128.795 86.8101 128.816 86.9208 128.735 86.9309C126.4 87.1422 125.333 84.0725 125.263 82.0494Z" fill="#263238"/>
<path d="M126.583 79.4731C129.824 78.4666 131.615 85.0087 128.596 85.9649C125.576 86.921 123.875 80.3286 126.583 79.4731Z" fill="#263238"/>
<path d="M128.091 79.5229C128.705 79.7242 129.389 80.2174 130.023 80.0865C130.657 79.9557 131.09 79.08 131.362 78.2648C131.362 78.1843 131.462 78.2648 131.483 78.2648C131.865 79.5128 131.815 80.932 130.667 81.5057C129.52 82.0793 128.524 81.1735 127.879 80.006C127.759 79.845 127.839 79.4122 128.091 79.5229Z" fill="#263238"/>
<path d="M118.149 102.23C118.733 102.622 119.357 103.236 120.162 103.105C120.932 102.939 121.659 102.613 122.296 102.149C122.308 102.135 122.325 102.125 122.344 102.123C122.363 102.122 122.382 102.127 122.397 102.139C122.411 102.151 122.421 102.169 122.422 102.187C122.424 102.206 122.419 102.225 122.407 102.24C122.189 102.705 121.849 103.103 121.424 103.392C120.999 103.681 120.504 103.849 119.991 103.88C119.542 103.858 119.11 103.701 118.751 103.43C118.392 103.159 118.123 102.786 117.978 102.361C117.908 102.25 118.059 102.179 118.149 102.23Z" fill="#263238"/>
<path d="M124.899 92.0035C124.899 92.0035 126.097 94.9525 126.469 96.3918C126.469 96.5327 121.517 98.9483 118.317 95.9892C118.283 95.9665 118.26 95.9315 118.253 95.8919C118.245 95.8522 118.254 95.8112 118.276 95.7778C118.299 95.7445 118.334 95.7215 118.374 95.7139C118.413 95.7064 118.454 95.7149 118.488 95.7376C120.646 96.5238 123.001 96.5909 125.201 95.9288C125.201 95.5061 122.967 90.9468 123.188 90.8964C124.332 90.7083 125.497 90.6744 126.65 90.7958C124.315 84.5858 121.014 78.7985 118.79 72.5684C118.77 72.5223 118.768 72.4706 118.785 72.4232C118.801 72.3759 118.835 72.3364 118.879 72.3125C118.923 72.2886 118.974 72.2819 119.023 72.2939C119.072 72.3059 119.114 72.3356 119.142 72.3772C123.037 78.2047 125.875 85.3004 128.442 91.6513C128.784 92.4263 125.573 92.1042 124.899 92.0035Z" fill="#263238"/>
<path d="M125.192 96.6224C124.658 97.9582 123.792 99.1358 122.676 100.044C122.05 100.514 121.295 100.781 120.512 100.809C118.791 100.809 118.338 99.3902 118.278 98.0516C118.254 97.3428 118.311 96.6336 118.449 95.938C120.566 96.8818 122.929 97.1217 125.192 96.6224Z" fill="#263238"/>
<path d="M122.678 100.045C122.051 100.515 121.296 100.782 120.514 100.81C118.793 100.81 118.34 99.3911 118.279 98.0525C120.041 97.7405 122.054 98.4249 122.678 100.045Z" fill="#FF99BA"/>
<path d="M86.6045 94.037C92.3817 94.4094 93.046 81.1944 93.046 81.1944C93.046 81.1944 117.201 75.5682 118.067 55.5594C118.067 55.5594 123.029 67.9793 136.184 72.9312C136.184 72.9312 134 51.1912 116.467 48.0108C116.467 48.0108 94.5456 41.5089 83.5247 59.2632C72.5037 77.0175 82.7295 93.7854 86.6045 94.037Z" fill="#263238"/>
<path d="M118.068 54.0786C118.545 57.1314 118.363 60.2509 117.534 63.2275C116.752 66.2526 115.347 69.0809 113.408 71.531C112.932 72.1469 112.418 72.7319 111.868 73.2822L111.062 74.1377C110.781 74.3994 110.479 74.641 110.177 74.8926C109.573 75.3757 108.989 75.8991 108.365 76.352C107.741 76.8049 107.057 77.1773 106.352 77.5799C106.02 77.7711 105.698 77.9825 105.346 78.1636L104.339 78.6468L102.236 79.6029C100.786 80.1062 99.3168 80.5289 97.8574 80.9315C99.2162 80.237 100.625 79.6834 101.964 78.989L103.926 77.8818L104.933 77.3283C105.245 77.127 105.537 76.8955 105.839 76.6741C106.443 76.2312 107.047 75.7984 107.661 75.3757C108.274 74.953 108.768 74.3692 109.321 73.9163L110.157 73.1816L110.901 72.3563C111.413 71.828 111.894 71.2701 112.341 70.6855C114.17 68.352 115.589 65.7246 116.538 62.9155C117.023 61.5052 117.393 60.0578 117.645 58.5876C117.912 57.0992 118.054 55.5908 118.068 54.0786Z" fill="#263238"/>
<path d="M90.9139 93.725C90.9139 93.725 82.4394 85.4819 78.5846 88.6926C74.7298 91.9032 82.369 104.726 87.7939 105.632C88.4813 105.797 89.1951 105.821 89.8923 105.704C90.5894 105.586 91.2556 105.329 91.8507 104.947C92.4459 104.565 92.9577 104.067 93.3554 103.483C93.7531 102.898 94.0284 102.239 94.1649 101.545L90.9139 93.725Z" fill="#F4C3B8"/>
<path d="M80.8664 92.305C80.8477 92.305 80.8298 92.3124 80.8165 92.3256C80.8033 92.3388 80.7959 92.3568 80.7959 92.3754C80.7959 92.3941 80.8033 92.412 80.8165 92.4253C80.8298 92.4385 80.8477 92.4459 80.8664 92.4459C84.701 93.2007 87.1971 96.1397 89.1698 99.3C87.8614 98.1929 86.2812 97.75 84.7614 99.3C84.6809 99.3906 84.7614 99.5114 84.8923 99.4711C85.4801 99.1544 86.1513 99.027 86.8143 99.1062C87.4773 99.1855 88.0996 99.4676 88.5961 99.914C89.4224 100.663 90.1648 101.5 90.8104 102.41C91.0318 102.702 91.5753 102.41 91.3841 102.078L91.3337 101.997C90.5487 97.5286 85.8082 91.8319 80.8664 92.305Z" fill="#263238"/>
<path d="M85.1155 89.5277C85.1155 89.5277 79.6201 74.8834 81.5224 65.3219C83.636 54.6733 96.8309 42.5251 111.918 47.0744C111.918 47.0744 93.9725 49.7617 87.6317 64.1846C84.7129 70.8273 90.2284 88.4105 90.2284 88.4105L85.1155 89.5277Z" fill="#C7C7C7"/>
<path d="M93.5907 110.398C100.251 108.323 103.733 100.485 101.368 92.8905C99.0022 85.296 91.6852 80.8211 85.0247 82.8956C78.3642 84.9701 74.8824 92.8085 77.2478 100.403C79.6133 107.998 86.9302 112.472 93.5907 110.398Z" fill="#C7C7C7"/>
<path d="M97.7357 93.5023C99.8593 100.326 96.7292 107.372 90.6903 109.234C84.6515 111.096 78.1295 107.08 75.9957 100.256C73.862 93.4319 77.0022 86.3865 83.0411 84.5145C89.08 82.6424 95.612 86.7187 97.7357 93.5023Z" fill="#455A64"/>
<path d="M108.865 128.055L103.33 142.024L85.9176 124.461L81.0361 130.138C81.0361 130.138 98.1463 158.098 98.2067 156.83L103.903 144.752L112.237 153.076L111.482 132.121L108.865 128.055Z" fill="#EBEBEB"/>
<path d="M112.491 142.709C112.24 139.257 112.099 135.754 111.696 132.312C111.696 132.191 111.485 132.141 111.455 132.312C110.78 135.653 111.777 148.889 111.777 152.059C111.435 151.697 104.057 144.732 103.987 144.843C102.749 146.755 98.5717 155.531 98.2899 156.327C95.5825 151.888 84.1288 134.385 80.9382 130.158C80.9192 130.139 80.8943 130.126 80.8674 130.123C80.8405 130.12 80.8133 130.125 80.7901 130.139C80.7669 130.153 80.749 130.175 80.7394 130.2C80.7297 130.225 80.7289 130.253 80.7369 130.279C83.1223 134.969 97.9175 158.068 98.1289 158.007C100.33 153.867 102.319 149.618 104.087 145.275C105.335 146.795 112.783 154.656 112.803 154.142C112.897 150.328 112.793 146.512 112.491 142.709Z" fill="#263238"/>
<path d="M209.596 34.9774C208.992 40.7671 206.791 46.275 203.238 50.8866C199.686 55.4981 194.922 59.0319 189.478 61.0936C184.035 63.1552 178.125 63.6637 172.409 62.5621C166.693 61.4606 161.396 58.7924 157.108 54.8554L141.387 57.1602L149.257 43.5728C147.476 39.1532 146.723 34.3862 147.057 29.6328C147.39 24.8793 148.8 20.264 151.181 16.1362C153.562 12.0084 156.85 8.47631 160.798 5.80731C164.745 3.13832 169.248 1.40238 173.966 0.730917C178.683 0.0594518 183.492 0.470057 188.027 1.93165C192.562 3.39325 196.706 5.86754 200.144 9.16718C203.582 12.4668 206.224 16.5053 207.87 20.977C209.516 25.4487 210.124 30.2363 209.646 34.9774H209.596Z" fill="white"/>
<path d="M209.598 34.9773C208.989 40.7702 206.795 46.2831 203.257 50.9099C201.519 53.221 199.442 55.2568 197.097 56.9487C194.782 58.7037 192.23 60.1234 189.518 61.1659C186.804 62.2275 183.955 62.905 181.054 63.1789C179.605 63.3113 178.148 63.3382 176.696 63.2594C175.237 63.2247 173.783 63.0733 172.348 62.8065C166.551 61.763 161.159 59.1246 156.778 55.1874L157.15 55.2981L141.449 57.7137L140.312 57.8848L140.885 56.8783L148.726 43.2606V43.8041C146.882 39.3002 146.099 34.4327 146.435 29.5777C146.772 24.7228 148.22 20.0102 150.668 15.8039C153.112 11.6134 156.474 8.0312 160.501 5.32645C164.525 2.66173 169.1 0.942465 173.883 0.29753C178.666 -0.347405 183.533 0.0987248 188.119 1.60248C192.649 3.15035 196.776 5.69166 200.197 9.04036C203.623 12.3717 206.249 16.4364 207.877 20.9289C209.505 25.4214 210.093 30.2247 209.598 34.9773ZM209.598 34.9773C210.1 30.2459 209.509 25.4623 207.87 20.9952C206.232 16.5282 203.59 12.497 200.147 9.2122C196.705 5.92745 192.555 3.47689 188.016 2.04936C183.477 0.621832 178.671 0.255459 173.968 0.978473C169.309 1.67834 164.871 3.43407 160.995 6.11151C157.155 8.80476 153.948 12.3009 151.594 16.3575C149.278 20.4287 147.916 24.972 147.609 29.6458C147.302 34.3196 148.059 39.0021 149.823 43.3412L149.933 43.623L149.782 43.8746L141.872 57.4419L141.308 56.6065L157.039 54.4024H157.261L157.412 54.5533C161.627 58.488 166.855 61.1714 172.509 62.3032C173.912 62.585 175.336 62.7566 176.766 62.8165C178.197 62.9172 179.633 62.9172 181.064 62.8165C183.933 62.5927 186.758 61.9728 189.458 60.9747C192.173 59.9966 194.727 58.6194 197.037 56.8884C199.397 55.2076 201.482 53.1704 203.216 50.8495C206.765 46.2478 208.974 40.755 209.598 34.9773Z" fill="#263238"/>
<path d="M192.066 36.4669C194.167 36.4669 195.871 34.7636 195.871 32.6624C195.871 30.5612 194.167 28.8579 192.066 28.8579C189.965 28.8579 188.262 30.5612 188.262 32.6624C188.262 34.7636 189.965 36.4669 192.066 36.4669Z" fill="#263238"/>
<path d="M178.428 36.4671C180.529 36.4671 182.232 34.7638 182.232 32.6626C182.232 30.5615 180.529 28.8582 178.428 28.8582C176.326 28.8582 174.623 30.5615 174.623 32.6626C174.623 34.7638 176.326 36.4671 178.428 36.4671Z" fill="#263238"/>
<path d="M164.798 36.4669C166.899 36.4669 168.602 34.7636 168.602 32.6624C168.602 30.5612 166.899 28.8579 164.798 28.8579C162.696 28.8579 160.993 30.5612 160.993 32.6624C160.993 34.7636 162.696 36.4669 164.798 36.4669Z" fill="#263238"/>
<path d="M522.129 34.9777C521.525 40.7674 519.324 46.2753 515.772 50.8869C512.219 55.4985 507.455 59.0322 502.012 61.0939C496.568 63.1555 490.658 63.664 484.942 62.5624C479.226 61.4609 473.929 58.7927 469.641 54.8557L453.92 57.1605L461.78 43.5731C459.992 39.1512 459.233 34.38 459.562 29.6213C459.891 24.8626 461.299 20.2413 463.679 16.1076C466.06 11.974 469.35 8.43654 473.301 5.76348C477.251 3.09043 481.759 1.35191 486.481 0.679746C491.204 0.00758135 496.017 0.41941 500.557 1.884C505.097 3.34859 509.243 5.8275 512.683 9.13281C516.122 12.4381 518.763 16.4831 520.407 20.961C522.051 25.4389 522.653 30.2323 522.169 34.9777H522.129Z" fill="white"/>
<path d="M522.13 34.9767C521.517 40.7684 519.324 46.2801 515.789 50.9092C514.905 52.0549 513.954 53.1471 512.941 54.1803C511.893 55.1838 510.784 56.1216 509.62 56.9883C507.307 58.7474 504.755 60.1674 502.041 61.2055C499.33 62.2676 496.485 62.9452 493.586 63.2185C492.134 63.351 490.674 63.3779 489.218 63.299C487.759 63.2638 486.305 63.1123 484.87 62.8461C479.079 61.7824 473.697 59.1267 469.33 55.1767L469.703 55.2874L454.002 57.7029L452.864 57.8741L453.438 56.8676L461.258 43.2499V43.7934C459.416 39.2897 458.631 34.423 458.966 29.5684C459.302 24.7139 460.747 20.001 463.191 15.7932C465.639 11.6022 469.004 8.0201 473.034 5.31573C477.058 2.651 481.633 0.931723 486.416 0.286788C491.199 -0.358147 496.066 0.0879827 500.652 1.59174C505.183 3.13837 509.309 5.67985 512.73 9.02964C516.159 12.3607 518.787 16.427 520.415 20.9217C522.043 25.4164 522.63 30.2222 522.13 34.9767ZM522.13 34.9767C522.632 30.2452 522.041 25.4616 520.403 20.9946C518.764 16.5275 516.122 12.4963 512.68 9.21153C509.238 5.92678 505.087 3.47622 500.548 2.04869C496.01 0.621165 491.204 0.254792 486.501 0.977805C481.842 1.67768 477.404 3.43341 473.527 6.11084C469.688 8.8041 466.48 12.3002 464.127 16.3568C461.795 20.4263 460.418 24.9727 460.101 29.6524C459.805 34.3224 460.558 38.9994 462.305 43.3405L462.426 43.6223L462.275 43.8739L454.364 57.4413L453.8 56.6059L469.532 54.4017H469.753L469.904 54.5527C474.105 58.4791 479.314 61.162 484.951 62.3026C486.354 62.5843 487.778 62.7559 489.208 62.8159C490.639 62.9165 492.075 62.9165 493.506 62.8159C496.375 62.592 499.2 61.9722 501.9 60.974C504.614 59.9941 507.168 58.617 509.479 56.8877C511.833 55.2036 513.914 53.1667 515.648 50.8488C519.237 46.2604 521.481 40.7655 522.13 34.9767Z" fill="#263238"/>
<path d="M504.547 36.4671C506.648 36.4671 508.351 34.7638 508.351 32.6626C508.351 30.5615 506.648 28.8582 504.547 28.8582C502.446 28.8582 500.742 30.5615 500.742 32.6626C500.742 34.7638 502.446 36.4671 504.547 36.4671Z" fill="#263238"/>
<path d="M490.918 36.4669C493.019 36.4669 494.722 34.7636 494.722 32.6624C494.722 30.5612 493.019 28.8579 490.918 28.8579C488.817 28.8579 487.113 30.5612 487.113 32.6624C487.113 34.7636 488.817 36.4669 490.918 36.4669Z" fill="#263238"/>
<path d="M481.095 32.6623C481.097 33.4152 480.876 34.1518 480.459 34.7787C480.042 35.4057 479.449 35.8949 478.754 36.1844C478.059 36.4739 477.293 36.5507 476.555 36.405C475.816 36.2594 475.137 35.8978 474.604 35.3662C474.071 34.8345 473.708 34.1566 473.56 33.4183C473.413 32.6801 473.487 31.9146 473.775 31.2188C474.063 30.5231 474.55 29.9283 475.176 29.5098C475.802 29.0913 476.538 28.8679 477.291 28.8679C478.298 28.8679 479.264 29.2674 479.977 29.9787C480.691 30.69 481.093 31.6551 481.095 32.6623Z" fill="#263238"/>
<path d="M157.579 257.729H150.846V262.128H157.579V257.729Z" fill="#455A64"/>
<path d="M166.315 257.438H159.582V261.836H166.315V257.438Z" fill="#455A64"/>
<path d="M175.053 257.147H168.319V261.545H175.053V257.147Z" fill="#455A64"/>
<path d="M183.776 256.854H177.043V261.252H183.776V256.854Z" fill="#455A64"/>
<path d="M192.514 256.562H185.78V260.96H192.514V256.562Z" fill="#455A64"/>
<path d="M201.252 256.28H194.519V260.679H201.252V256.28Z" fill="#455A64"/>
<path d="M209.976 255.988H203.243V260.387H209.976V255.988Z" fill="#455A64"/>
<path d="M218.711 255.698H211.978V260.096H218.711V255.698Z" fill="#455A64"/>
<path d="M227.44 255.405H220.707V259.803H227.44V255.405Z" fill="#455A64"/>
<path d="M229.089 264.655H149.194V259.301L229.089 257.076V264.655Z" fill="#37474F"/>
<path d="M307.072 243.559H175.183L196.158 145.367H328.047L307.072 243.559Z" fill="#455A64"/>
<path d="M311.953 243.559H180.054L201.029 145.367H332.928L311.953 243.559Z" fill="#37474F"/>
<path d="M267.89 188.776C267.486 191.011 266.327 193.04 264.607 194.524C262.887 196.008 260.71 196.857 258.44 196.929C257.415 196.96 256.397 196.76 255.461 196.341C254.525 195.923 253.696 195.298 253.037 194.514C252.377 193.729 251.904 192.805 251.652 191.811C251.401 190.818 251.378 189.78 251.586 188.776C251.986 186.54 253.142 184.509 254.86 183.023C256.579 181.537 258.756 180.686 261.026 180.614C262.053 180.58 263.073 180.78 264.011 181.198C264.949 181.616 265.78 182.242 266.441 183.028C267.102 183.813 267.576 184.739 267.827 185.735C268.078 186.731 268.1 187.771 267.89 188.776Z" fill="#263238"/>
<path d="M274.655 269.204H209.787V264.162L274.655 262.068V269.204Z" fill="#455A64"/>
<path d="M292.288 269.195H257.454L236.479 214.171H271.313L292.288 269.195Z" fill="#455A64"/>
<path d="M298.016 269.195H263.192L242.217 214.171H277.041L298.016 269.195Z" fill="#263238"/>
<path d="M146.71 270.543H79.8593C74.1525 270.543 82.4057 254.289 103.24 248.059C124.074 241.828 153.302 264.444 146.71 270.543Z" fill="#37474F"/>
<path d="M120.541 270.542C120.586 268.69 120.891 266.854 121.447 265.087C121.984 263.3 122.737 261.587 123.691 259.984C124.648 258.371 125.846 256.915 127.244 255.666C128.631 254.427 130.225 253.442 131.954 252.757C131.24 253.341 130.425 253.764 129.77 254.398L128.764 255.274L127.818 256.28C126.582 257.574 125.498 259.006 124.587 260.547C123.661 262.088 122.867 263.705 122.212 265.379C121.54 267.06 120.982 268.785 120.541 270.542Z" fill="#263238"/>
<path d="M128.412 255.074C132.39 256.333 136.154 258.19 139.574 260.58C141.305 261.776 142.871 263.194 144.234 264.797C145.663 266.392 146.532 268.41 146.71 270.544C146.156 268.576 145.094 266.788 143.63 265.36C142.204 263.908 140.644 262.594 138.97 261.435C137.309 260.237 135.568 259.161 133.797 258.104C132.025 257.047 130.244 256.051 128.412 255.074Z" fill="#263238"/>
<path d="M466.427 257.729H459.693V262.128H466.427V257.729Z" fill="#455A64"/>
<path d="M475.162 257.438H468.429V261.836H475.162V257.438Z" fill="#455A64"/>
<path d="M483.9 257.147H477.167V261.545H483.9V257.147Z" fill="#455A64"/>
<path d="M492.626 256.854H485.893V261.252H492.626V256.854Z" fill="#455A64"/>
<path d="M501.361 256.562H494.628V260.96H501.361V256.562Z" fill="#455A64"/>
<path d="M510.101 256.28H503.367V260.679H510.101V256.28Z" fill="#455A64"/>
<path d="M518.825 255.988H512.092V260.387H518.825V255.988Z" fill="#455A64"/>
<path d="M527.56 255.698H520.826V260.096H527.56V255.698Z" fill="#455A64"/>
<path d="M536.298 255.405H529.564V259.803H536.298V255.405Z" fill="#455A64"/>
<path d="M537.946 264.655H458.052V259.301L537.946 257.076V264.655Z" fill="#37474F"/>
<path d="M615.919 243.559H484.03L505.005 145.367H636.894L615.919 243.559Z" fill="#455A64"/>
<path d="M620.801 243.559H488.912L509.887 145.367H641.776L620.801 243.559Z" fill="#37474F"/>
<path d="M576.738 188.776C576.334 191.01 575.177 193.037 573.459 194.521C571.741 196.005 569.566 196.854 567.297 196.929C566.272 196.962 565.253 196.762 564.315 196.345C563.378 195.927 562.548 195.302 561.887 194.518C561.227 193.733 560.752 192.808 560.501 191.814C560.249 190.819 560.226 189.781 560.433 188.776C560.835 186.541 561.992 184.511 563.71 183.025C565.428 181.539 567.604 180.688 569.874 180.614C570.9 180.58 571.921 180.78 572.859 181.198C573.797 181.616 574.628 182.242 575.289 183.028C575.95 183.813 576.424 184.739 576.675 185.735C576.926 186.731 576.948 187.771 576.738 188.776Z" fill="#263238"/>
<path d="M583.502 269.204H518.635V264.162L583.502 262.068V269.204Z" fill="#455A64"/>
<path d="M601.135 269.195H566.301L545.326 214.171H580.16L601.135 269.195Z" fill="#455A64"/>
<path d="M606.872 269.195H572.038L551.062 214.171H585.897L606.872 269.195Z" fill="#263238"/>
<path d="M455.587 270.543H388.707C383 270.543 391.253 254.289 412.087 248.059C432.922 241.828 462.15 264.444 455.587 270.543Z" fill="#37474F"/>
<path d="M429.34 270.542C429.389 268.69 429.694 266.855 430.246 265.087C430.787 263.302 431.54 261.589 432.49 259.984C433.453 258.376 434.65 256.92 436.043 255.666C437.43 254.427 439.024 253.442 440.753 252.757C440.039 253.341 439.223 253.764 438.569 254.398L437.563 255.274L436.617 256.28C435.374 257.572 434.287 259.004 433.376 260.547C432.45 262.088 431.656 263.705 431.001 265.379C430.333 267.061 429.778 268.786 429.34 270.542Z" fill="#263238"/>
<path d="M437.261 255.074C441.239 256.333 445.002 258.19 448.423 260.58C450.155 261.778 451.724 263.196 453.093 264.797C454.517 266.381 455.393 268.382 455.589 270.504C455.031 268.535 453.965 266.747 452.499 265.32C451.073 263.868 449.512 262.554 447.839 261.395C446.188 260.197 444.437 259.12 442.666 258.063C440.894 257.007 439.103 256.051 437.261 255.074Z" fill="#263238"/>
</svg>
