<svg width="59" height="59" viewBox="0 0 59 59" fill="none" xmlns="http://www.w3.org/2000/svg">
<g filter="url(#filter0_d_79_5647)">
<circle cx="29.5" cy="29.5" r="17.5" fill="white"/>
</g>
<path d="M26.7298 19.5484C24.708 20.2498 22.9644 21.5811 21.7551 23.3466C20.5458 25.1122 19.9346 27.2191 20.0112 29.3577C20.0878 31.4963 20.8482 33.5541 22.1807 35.2286C23.5132 36.9032 25.3475 38.1063 27.4144 38.6612C29.09 39.0936 30.8455 39.1126 32.5301 38.7165C34.0561 38.3738 35.467 37.6405 36.6245 36.5887C37.8293 35.4605 38.7038 34.0253 39.1539 32.4373C39.6433 30.7105 39.7303 28.8945 39.4085 27.1287H29.9991V31.0319H35.4484C35.3395 31.6544 35.1061 32.2486 34.7622 32.7788C34.4183 33.3091 33.971 33.7645 33.447 34.1178C32.7816 34.5579 32.0315 34.8541 31.2448 34.9873C30.4559 35.134 29.6466 35.134 28.8577 34.9873C28.0581 34.8219 27.3016 34.4919 26.6366 34.0182C25.5681 33.2619 24.7659 32.1874 24.3443 30.9481C23.9156 29.6856 23.9156 28.3169 24.3443 27.0544C24.6444 26.1695 25.1405 25.3637 25.7955 24.6973C26.5452 23.9207 27.4942 23.3656 28.5386 23.0929C29.583 22.8201 30.6823 22.8403 31.7159 23.1512C32.5234 23.3991 33.2618 23.8322 33.8722 24.4159C34.4867 23.8047 35.1 23.1918 35.7124 22.5774C36.0285 22.247 36.3732 21.9324 36.6846 21.5941C35.7528 20.7269 34.659 20.0522 33.4659 19.6085C31.2934 18.8196 28.9161 18.7984 26.7298 19.5484Z" fill="white"/>
<path d="M26.7297 19.5482C28.9158 18.7977 31.2931 18.8183 33.4658 19.6067C34.6591 20.0534 35.7524 20.7314 36.6829 21.6018C36.3667 21.9401 36.0332 22.2563 35.7107 22.5851C35.0973 23.1974 34.4844 23.8076 33.8721 24.4157C33.2617 23.832 32.5233 23.3989 31.7158 23.151C30.6825 22.839 29.5832 22.8177 28.5386 23.0893C27.4939 23.3609 26.5443 23.915 25.7938 24.6908C25.1388 25.3572 24.6427 26.1629 24.3426 27.0479L21.0654 24.5106C22.2385 22.1844 24.2695 20.4051 26.7297 19.5482Z" fill="#E33629"/>
<path d="M20.196 27.0243C20.3722 26.1514 20.6646 25.306 21.0655 24.5107L24.3427 27.0544C23.914 28.3169 23.914 29.6856 24.3427 30.9481C23.2508 31.7912 22.1584 32.6386 21.0655 33.4901C20.0619 31.4924 19.7558 29.2162 20.196 27.0243Z" fill="#F8BD00"/>
<path d="M29.9991 27.127H39.4084C39.7303 28.8927 39.6432 30.7087 39.1539 32.4355C38.7037 34.0235 37.8293 35.4587 36.6245 36.5869C35.5669 35.7617 34.5046 34.9428 33.4469 34.1176C33.9713 33.7639 34.4188 33.308 34.7627 32.7772C35.1066 32.2464 35.3398 31.6516 35.4483 31.0286H29.9991C29.9975 29.7291 29.9991 28.428 29.9991 27.127Z" fill="#587DBD"/>
<path d="M21.0639 33.4898C22.1568 32.6467 23.2492 31.7993 24.3411 30.9478C24.7635 32.1875 25.5669 33.262 26.6365 34.0178C27.3036 34.4893 28.0617 34.8167 28.8624 34.979C29.6513 35.1257 30.4605 35.1257 31.2495 34.979C32.0361 34.8458 32.7862 34.5497 33.4517 34.1095C34.5093 34.9347 35.5716 35.7536 36.6292 36.5788C35.4718 37.6313 34.061 38.365 32.5347 38.7083C30.8502 39.1043 29.0946 39.0853 27.419 38.6529C26.0938 38.2991 24.8559 37.6753 23.783 36.8207C22.6474 35.9191 21.7199 34.7829 21.0639 33.4898Z" fill="#319F43"/>
<defs>
<filter id="filter0_d_79_5647" x="0" y="0" width="59" height="59" filterUnits="userSpaceOnUse" color-interpolation-filters="sRGB">
<feFlood flood-opacity="0" result="BackgroundImageFix"/>
<feColorMatrix in="SourceAlpha" type="matrix" values="0 0 0 0 0 0 0 0 0 0 0 0 0 0 0 0 0 0 127 0" result="hardAlpha"/>
<feOffset/>
<feGaussianBlur stdDeviation="6"/>
<feComposite in2="hardAlpha" operator="out"/>
<feColorMatrix type="matrix" values="0 0 0 0 0 0 0 0 0 0 0 0 0 0 0 0 0 0 0.25 0"/>
<feBlend mode="normal" in2="BackgroundImageFix" result="effect1_dropShadow_79_5647"/>
<feBlend mode="normal" in="SourceGraphic" in2="effect1_dropShadow_79_5647" result="shape"/>
</filter>
</defs>
</svg>
