<svg width="20" height="20" viewBox="0 0 20 20" fill="none" xmlns="http://www.w3.org/2000/svg">
<path d="M9.99996 13.3332C10.884 13.3332 11.7319 12.982 12.357 12.3569C12.9821 11.7317 13.3333 10.8839 13.3333 9.99984C13.3333 9.11578 12.9821 8.26794 12.357 7.64281C11.7319 7.01769 10.884 6.6665 9.99996 6.6665C9.1159 6.6665 8.26806 7.01769 7.64294 7.64281C7.01782 8.26794 6.66663 9.11578 6.66663 9.99984C6.66663 10.8839 7.01782 11.7317 7.64294 12.3569C8.26806 12.982 9.1159 13.3332 9.99996 13.3332Z" stroke="white" stroke-width="1.3" stroke-linecap="round" stroke-linejoin="round"/>
<path d="M2.5 13.3333V6.66667C2.5 5.5616 2.93899 4.50179 3.72039 3.72039C4.50179 2.93899 5.5616 2.5 6.66667 2.5H13.3333C14.4384 2.5 15.4982 2.93899 16.2796 3.72039C17.061 4.50179 17.5 5.5616 17.5 6.66667V13.3333C17.5 14.4384 17.061 15.4982 16.2796 16.2796C15.4982 17.061 14.4384 17.5 13.3333 17.5H6.66667C5.5616 17.5 4.50179 17.061 3.72039 16.2796C2.93899 15.4982 2.5 14.4384 2.5 13.3333Z" stroke="white" stroke-width="1.3"/>
<path d="M14.5834 5.42518L14.5917 5.41602" stroke="white" stroke-width="1.3" stroke-linecap="round" stroke-linejoin="round"/>
</svg>
