<svg width="50" height="50" viewBox="0 0 50 50" fill="none" xmlns="http://www.w3.org/2000/svg">
<rect width="50" height="50" rx="5" fill="#3F50CD"/>
<path d="M17.2466 15.6679C17.2462 16.3751 16.9695 17.0532 16.4773 17.553C15.9851 18.0528 15.3177 18.3334 14.622 18.333C13.9262 18.3327 13.2591 18.0514 12.7674 17.5511C12.2757 17.0508 11.9997 16.3724 12 15.6652C12.0003 14.958 12.2771 14.2799 12.7693 13.7801C13.2615 13.2802 13.9289 12.9996 14.6246 13C15.3203 13.0004 15.9875 13.2816 16.4792 13.7819C16.9709 14.2823 17.2469 14.9606 17.2466 15.6679ZM17.3253 20.3076H12.0787V37H17.3253V20.3076ZM25.6149 20.3076H20.3945V37H25.5624V28.2405C25.5624 23.3608 31.819 22.9075 31.819 28.2405V37H37V26.4273C37 18.201 27.7398 18.5077 25.5624 22.5475L25.6149 20.3076Z" fill="white"/>
</svg>
