<svg width="22" height="22" viewBox="0 0 22 22" fill="none" xmlns="http://www.w3.org/2000/svg">
<path d="M7.18023 4.55935C7.18356 4.98492 7.01926 5.3947 6.72286 5.70009C6.42645 6.00548 6.02175 6.18194 5.59627 6.1913C5.17168 6.17588 4.76924 5.99791 4.47215 5.69417C4.17506 5.39044 4.00603 4.98417 4 4.55935C4.01835 4.14533 4.19352 3.7538 4.48997 3.46421C4.78642 3.17462 5.18194 3.00866 5.59627 3C6.00938 3.00882 6.40349 3.1752 6.69795 3.46508C6.99241 3.75496 7.16494 4.14643 7.18023 4.55935ZM4.17107 9.09092C4.17107 8.1531 4.76798 8.29956 5.59627 8.29956C6.42455 8.29956 7.00915 8.1531 7.00915 9.09092V18.2279C7.00915 19.1781 6.41225 18.9836 5.59627 18.9836C4.78029 18.9836 4.17107 19.1781 4.17107 18.2279V9.09092ZM9.47063 9.09215C9.47063 8.56786 9.66509 8.37217 9.96908 8.31187C10.2743 8.25033 11.3217 8.31187 11.6872 8.31187C12.0527 8.31187 12.1992 8.90877 12.1869 9.35922C12.4995 8.93971 12.9145 8.6074 13.3922 8.39408C13.8699 8.18076 14.3944 8.09355 14.9154 8.14079C15.4271 8.10955 15.9396 8.18628 16.4197 8.36601C16.8998 8.54573 17.3367 8.82443 17.7021 9.184C18.0675 9.54357 18.3531 9.97597 18.5405 10.4531C18.7279 10.9303 18.8128 11.4415 18.7898 11.9536V18.191C18.7898 19.1411 18.2052 18.9467 17.3757 18.9467C16.5474 18.9467 15.9628 19.1411 15.9628 18.191V13.3185C15.9842 13.0678 15.9515 12.8154 15.8667 12.5784C15.782 12.3414 15.6472 12.1255 15.4716 11.9452C15.2961 11.765 15.0837 11.6246 14.8491 11.5337C14.6144 11.4427 14.363 11.4034 14.1117 11.4182C13.8615 11.4117 13.6127 11.4583 13.3819 11.5552C13.1511 11.652 12.9435 11.7969 12.7728 11.98C12.6022 12.1632 12.4725 12.3806 12.3923 12.6177C12.3121 12.8548 12.2831 13.1063 12.3075 13.3554V18.2279C12.3075 19.1781 11.7106 18.9836 10.8823 18.9836C10.054 18.9836 9.4694 19.1781 9.4694 18.2279V9.09092L9.47063 9.09215Z" stroke="white" stroke-linecap="round" stroke-linejoin="round"/>
</svg>
