<svg width="50" height="50" viewBox="0 0 50 50" fill="none" xmlns="http://www.w3.org/2000/svg">
<rect width="50" height="50" rx="5" fill="#B71424"/>
<path d="M20.8 37.425C22 37.7875 23.2125 38 24.5 38C27.8152 38 30.9946 36.683 33.3388 34.3388C35.683 31.9946 37 28.8152 37 25.5C37 23.8585 36.6767 22.233 36.0485 20.7165C35.4203 19.1999 34.4996 17.8219 33.3388 16.6612C32.1781 15.5004 30.8001 14.5797 29.2835 13.9515C27.767 13.3233 26.1415 13 24.5 13C22.8585 13 21.233 13.3233 19.7165 13.9515C18.1999 14.5797 16.8219 15.5004 15.6612 16.6612C13.317 19.0054 12 22.1848 12 25.5C12 30.8125 15.3375 35.375 20.05 37.175C19.9375 36.2 19.825 34.5875 20.05 33.475L21.4875 27.3C21.4875 27.3 21.125 26.575 21.125 25.425C21.125 23.7 22.2 22.4125 23.425 22.4125C24.5 22.4125 25 23.2 25 24.2125C25 25.2875 24.2875 26.825 23.925 28.3C23.7125 29.525 24.575 30.6 25.825 30.6C28.05 30.6 29.775 28.225 29.775 24.875C29.775 21.875 27.625 19.825 24.5375 19.825C21.0125 19.825 18.9375 22.45 18.9375 25.2125C18.9375 26.2875 19.2875 27.375 19.8625 28.0875C19.975 28.1625 19.975 28.2625 19.9375 28.45L19.575 29.8125C19.575 30.025 19.4375 30.1 19.225 29.95C17.625 29.25 16.7 26.975 16.7 25.1375C16.7 21.1875 19.5 17.6 24.9 17.6C29.2 17.6 32.55 20.6875 32.55 24.7875C32.55 29.0875 29.8875 32.5375 26.075 32.5375C24.8625 32.5375 23.675 31.8875 23.25 31.125L22.4125 34.0875C22.125 35.1625 21.3375 36.6 20.8 37.4625V37.425Z" fill="white"/>
</svg>
