<svg width="30" height="30" viewBox="0 0 30 30" fill="none" xmlns="http://www.w3.org/2000/svg">
<path d="M26.25 26.2498L20.8213 20.821M20.8213 20.821C21.7499 19.8924 22.4865 18.79 22.989 17.5767C23.4916 16.3634 23.7503 15.063 23.7503 13.7498C23.7503 12.4365 23.4916 11.1361 22.989 9.92284C22.4865 8.70955 21.7499 7.60713 20.8213 6.67852C19.8927 5.74991 18.7902 5.0133 17.5769 4.51074C16.3637 4.00818 15.0633 3.74951 13.75 3.74951C12.4368 3.74951 11.1364 4.00818 9.92308 4.51074C8.70979 5.0133 7.60737 5.74991 6.67876 6.67852C4.80335 8.55393 3.74976 11.0975 3.74976 13.7498C3.74976 16.402 4.80335 18.9456 6.67876 20.821C8.55418 22.6964 11.0978 23.75 13.75 23.75C16.4022 23.75 18.9459 22.6964 20.8213 20.821Z" stroke="black" stroke-width="2.2" stroke-linecap="round" stroke-linejoin="round"/>
</svg>
