<svg width="50" height="50" viewBox="0 0 50 50" fill="none" xmlns="http://www.w3.org/2000/svg">
<rect width="50" height="50" rx="5" fill="#509AED"/>
<path fill-rule="evenodd" clip-rule="evenodd" d="M33.1989 34.6232V34.6208L33.2215 34.569L37 16.3554V16.2976C37 15.8434 36.8236 15.4471 36.4431 15.2098C36.1092 15.0014 35.725 14.987 35.4554 15.0062C35.2044 15.0281 34.9568 15.0766 34.717 15.1508C34.6147 15.182 34.5138 15.2174 34.4147 15.2568L34.3983 15.2628L13.3327 23.1638L13.3264 23.1662C13.2618 23.1858 13.199 23.2104 13.1386 23.2397C12.9889 23.3042 12.8452 23.3808 12.709 23.4686C12.4381 23.6469 11.9228 24.0661 12.0098 24.731C12.0816 25.2827 12.4784 25.632 12.7468 25.8139C12.9048 25.9206 13.0752 26.0095 13.2545 26.0789L13.2949 26.0958L13.3075 26.0994L13.3163 26.103L17.0028 27.2896C16.9893 27.5112 17.0133 27.7341 17.0746 27.9581L18.9203 34.6545C19.0212 35.0195 19.2391 35.3452 19.5434 35.5857C19.8477 35.8263 20.2232 35.9696 20.6172 35.9957C21.0111 36.0217 21.4036 35.9292 21.7397 35.731C22.0758 35.5328 22.3385 35.2389 22.4909 34.8906L25.3736 31.9442L30.3238 35.5724L30.3943 35.6013C30.8441 35.7892 31.2636 35.8483 31.6479 35.7989C32.0322 35.7483 32.3371 35.5941 32.5664 35.4194C32.8317 35.2139 33.0431 34.952 33.1837 34.6545L33.1938 34.634L33.1976 34.6268L33.1989 34.6232ZM18.9014 27.498C18.881 27.4237 18.8859 27.3451 18.9153 27.2736C18.9448 27.2021 18.9973 27.1415 19.0652 27.1004L31.5648 19.5115C31.5648 19.5115 32.3005 19.0838 32.2741 19.5115C32.2741 19.5115 32.4051 19.5861 32.0108 19.9367C31.6378 20.2704 23.102 28.1497 22.2377 28.9471C22.1908 28.9926 22.1573 29.0491 22.1407 29.1109L20.7472 34.1943L18.9014 27.498Z" fill="white"/>
</svg>
