<svg width="50" height="50" viewBox="0 0 50 50" fill="none" xmlns="http://www.w3.org/2000/svg">
<rect width="50" height="50" rx="5" fill="#528BFB"/>
<path d="M37 17.3529C36.0798 17.7647 35.088 18.0353 34.0602 18.1647C35.1119 17.5412 35.9245 16.5529 36.3069 15.3647C35.315 15.9529 34.2156 16.3647 33.0564 16.6C32.1123 15.5882 30.7859 15 29.2801 15C26.4718 15 24.1773 17.2588 24.1773 20.0471C24.1773 20.4471 24.2251 20.8353 24.3088 21.2C20.0545 20.9882 16.2663 18.9765 13.7447 15.9294C13.3026 16.6706 13.0516 17.5412 13.0516 18.4588C13.0516 20.2118 13.9479 21.7647 15.3341 22.6471C14.4857 22.6471 13.6969 22.4118 13.0038 22.0588V22.0941C13.0038 24.5412 14.7725 26.5882 17.1147 27.0471C16.3629 27.2505 15.5732 27.2787 14.8083 27.1294C15.1329 28.1323 15.7686 29.0099 16.626 29.6387C17.4834 30.2676 18.5194 30.6161 19.5884 30.6353C17.7764 32.0477 15.5301 32.8111 13.2189 32.8C12.8126 32.8 12.4063 32.7765 12 32.7294C14.2706 34.1647 16.9713 35 19.8633 35C29.2801 35 34.4546 27.3059 34.4546 20.6353C34.4546 20.4118 34.4546 20.2 34.4426 19.9765C35.4465 19.2706 36.3069 18.3765 37 17.3529Z" fill="white"/>
</svg>
