<svg width="22" height="22" viewBox="0 0 22 22" fill="none" xmlns="http://www.w3.org/2000/svg">
<path d="M8.5 14.5839V7.41592C8.50015 7.32623 8.52442 7.23824 8.57026 7.16116C8.61611 7.08408 8.68184 7.02075 8.76057 6.9778C8.83931 6.93485 8.92814 6.91388 9.01777 6.91706C9.1074 6.92025 9.19452 6.94749 9.27 6.99592L14.846 10.5789C14.9166 10.6242 14.9747 10.6864 15.0149 10.76C15.0552 10.8336 15.0763 10.9161 15.0763 10.9999C15.0763 11.0838 15.0552 11.1663 15.0149 11.2398C14.9747 11.3134 14.9166 11.3757 14.846 11.4209L9.27 15.0049C9.19452 15.0533 9.1074 15.0806 9.01777 15.0838C8.92814 15.087 8.83931 15.066 8.76057 15.023C8.68184 14.9801 8.61611 14.9168 8.57026 14.8397C8.52442 14.7626 8.50015 14.6746 8.5 14.5849V14.5839Z" fill="white"/>
<path d="M0 11C0 4.925 4.925 0 11 0C17.075 0 22 4.925 22 11C22 17.075 17.075 22 11 22C4.925 22 0 17.075 0 11ZM11 1.5C8.48044 1.5 6.06408 2.50089 4.28249 4.28249C2.50089 6.06408 1.5 8.48044 1.5 11C1.5 13.5196 2.50089 15.9359 4.28249 17.7175C6.06408 19.4991 8.48044 20.5 11 20.5C13.5196 20.5 15.9359 19.4991 17.7175 17.7175C19.4991 15.9359 20.5 13.5196 20.5 11C20.5 8.48044 19.4991 6.06408 17.7175 4.28249C15.9359 2.50089 13.5196 1.5 11 1.5Z" fill="white"/>
</svg>
