<svg width="19" height="12" viewBox="0 0 19 12" fill="none" xmlns="http://www.w3.org/2000/svg">
<path d="M1.75 7C2.30228 7 2.75 6.55228 2.75 6C2.75 5.44772 2.30228 5 1.75 5C1.19772 5 0.75 5.44772 0.75 6C0.75 6.55228 1.19772 7 1.75 7Z" fill="white"/>
<path d="M17.81 5H5.69C5.17085 5 4.75 5.42085 4.75 5.94V6.06C4.75 6.57915 5.17085 7 5.69 7H17.81C18.3291 7 18.75 6.57915 18.75 6.06V5.94C18.75 5.42085 18.3291 5 17.81 5Z" fill="white"/>
<path d="M17.81 10H1.69C1.17085 10 0.75 10.4209 0.75 10.94V11.06C0.75 11.5791 1.17085 12 1.69 12H17.81C18.3291 12 18.75 11.5791 18.75 11.06V10.94C18.75 10.4209 18.3291 10 17.81 10Z" fill="white"/>
<path d="M17.81 0H1.69C1.17085 0 0.75 0.420852 0.75 0.94V1.06C0.75 1.57915 1.17085 2 1.69 2H17.81C18.3291 2 18.75 1.57915 18.75 1.06V0.94C18.75 0.420852 18.3291 0 17.81 0Z" fill="white"/>
</svg>
