<svg width="18" height="18" viewBox="0 0 18 18" fill="none" xmlns="http://www.w3.org/2000/svg">
<path d="M17.25 17L13.3896 13.1396M13.3896 13.1396C14.0499 12.4793 14.5737 11.6953 14.9311 10.8326C15.2885 9.96978 15.4724 9.04507 15.4724 8.11121C15.4724 7.17735 15.2885 6.25264 14.9311 5.38987C14.5737 4.5271 14.0499 3.74316 13.3896 3.08283C12.7293 2.42249 11.9453 1.89868 11.0826 1.54131C10.2198 1.18394 9.29507 1 8.36121 1C7.42735 1 6.50264 1.18394 5.63987 1.54131C4.7771 1.89868 3.99316 2.42249 3.33283 3.08283C1.99921 4.41644 1.25 6.2252 1.25 8.11121C1.25 9.99722 1.99921 11.806 3.33283 13.1396C4.66644 14.4732 6.4752 15.2224 8.36121 15.2224C10.2472 15.2224 12.056 14.4732 13.3896 13.1396Z" stroke="white" stroke-width="1.3" stroke-linecap="round" stroke-linejoin="round"/>
</svg>
